<svg width="178" height="411" viewBox="0 0 178 411" fill="none" xmlns="http://www.w3.org/2000/svg">
<path fill-rule="evenodd" clip-rule="evenodd" d="M507.338 114.151C506.794 113.711 506.254 113.665 505.595 114.003C504.604 114.511 504.683 115.49 505.725 115.615C506.233 115.676 508.343 115.035 508.193 114.866C508.155 114.823 507.77 114.501 507.338 114.151ZM502.041 106.535C501.084 106.85 500.857 106.737 500.16 105.601C499.432 104.414 499.438 104.29 500.233 104.09C500.99 103.9 500.999 103.859 500.301 103.764C499.863 103.704 499.381 103.416 499.231 103.124C499.081 102.832 498.807 102.67 498.622 102.764C498.438 102.859 498.371 103.102 498.475 103.303C498.578 103.505 498.536 103.735 498.381 103.814C497.843 104.09 497.086 101.675 497.454 100.857C497.763 100.171 497.704 99.9747 497.103 99.6866C496.705 99.4961 496.211 99.5408 496.004 99.7863C495.554 100.321 495.125 99.6626 495.491 98.9976C495.661 98.6884 495.451 98.5578 494.868 98.6104C493.844 98.7028 493.353 98.0601 494.14 97.6563C494.494 97.4747 494.507 97.2163 494.178 96.9043C493.902 96.643 493.641 96.3601 493.598 96.2758C493.555 96.1915 493.276 96.2477 492.977 96.401C492.594 96.5972 492.374 96.4293 492.228 95.831C492.101 95.3116 491.796 95.0001 491.441 95.0276C491.122 95.0523 490.781 94.9154 490.682 94.7234C490.584 94.5313 490.706 94.3989 490.955 94.4288C491.674 94.5154 490.944 93.4507 490.135 93.2334C489.732 93.1252 489.41 92.8466 489.42 92.6144C489.429 92.3818 489.15 92.2138 488.8 92.2409C487.953 92.3064 487.733 91.8022 488.355 91.2202C488.725 90.8742 488.65 90.8437 488.065 91.1038C487.63 91.2975 487.202 91.2325 487.115 90.9588C487.027 90.6855 486.352 89.9382 485.612 89.2989C484.874 88.6593 483.991 87.602 483.651 86.9487C483.153 85.9928 482.887 85.8249 482.289 86.0887C481.704 86.3465 481.653 86.316 482.047 85.9476C482.572 85.4562 482.317 84.5102 481.638 84.4283C481.331 84.3914 479.445 82.4561 478.456 81.164C478.026 80.6017 477.224 80.3999 476.569 80.6893C475.947 80.9644 475.905 80.9373 476.335 80.5375C476.691 80.2071 476.686 79.8918 476.321 79.5567C475.795 79.0733 475.166 78.3366 474.834 77.8137C474.742 77.6697 474.461 77.6578 474.209 77.7869C473.741 78.0271 471.301 75.9501 470.72 74.8161C470.542 74.4697 470.256 74.2591 470.084 74.3474C469.912 74.4357 469.489 74.2098 469.146 73.8458C468.801 73.4815 467.895 72.7547 467.132 72.2308C466.369 71.7071 465.597 70.879 465.416 70.3908C465.19 69.7811 464.915 69.591 464.539 69.7842C464.219 69.9484 463.876 69.7864 463.717 69.3953C463.246 68.2369 462.194 67.3776 461.431 67.529C461.027 67.6094 460.596 67.4767 460.472 67.2348C460.347 66.9925 460.521 66.7733 460.857 66.7475C461.194 66.7212 461.397 66.5596 461.309 66.3877C461.221 66.2162 460.757 66.1481 460.278 66.237C459.549 66.3719 459.458 66.2959 459.722 65.7734C459.986 65.251 459.895 65.175 459.166 65.3099C458.301 65.4704 457.656 64.9812 458.299 64.6517C458.879 64.3538 458.367 63.876 456.797 63.2526C455.962 62.9213 454.953 62.2627 454.554 61.7883C454.155 61.3144 453.636 61.0247 453.402 61.1447C453.168 61.2648 452.772 61.0244 452.522 60.61C451.798 59.409 449.772 57.9141 449.239 58.1874C448.971 58.3249 448.677 58.3199 448.585 58.1759C448.493 58.0317 448.176 57.6216 447.881 57.264C447.585 56.9064 447.224 56.4233 447.08 56.1905C446.935 55.9578 446.737 55.9115 446.64 56.0876C446.543 56.264 446.123 56.0014 445.708 55.5041C445.292 55.0067 444.534 54.4748 444.025 54.322C442.643 53.9084 440.098 52.3014 439.518 51.4766C439.238 51.0783 438.801 50.7786 438.547 50.8103C438.293 50.8423 437.933 50.5699 437.746 50.2052C437.558 49.8401 437.118 49.564 436.768 49.5909C436.417 49.618 436.138 49.4483 436.148 49.2136C436.158 48.979 435.92 48.8059 435.621 48.8291C435.321 48.8519 434.51 48.4078 433.82 47.8415C433.129 47.275 432.49 46.9475 432.399 47.1133C432.307 47.2791 431.42 46.7113 430.428 45.8522C429.431 44.9894 428.314 44.351 427.932 44.4265C427.552 44.502 426.811 44.1906 426.285 43.7349C425.759 43.2788 425.069 42.8725 424.751 42.8316C424.01 42.7363 423.378 41.5145 423.788 40.9703C423.999 40.6895 423.943 40.6479 423.617 40.8433C422.367 41.5903 421.836 41.6033 421.105 40.9057C420.671 40.4918 420.161 40.2325 419.972 40.3295C419.783 40.4266 419.424 40.1082 419.175 39.6222C418.902 39.0904 418.132 38.5759 417.242 38.3305C416.299 38.0702 415.73 37.6768 415.671 37.2438C415.611 36.8095 415.393 36.6599 415.064 36.8283C414.766 36.9812 414.086 36.6012 413.443 35.924C412.834 35.2819 411.905 34.5602 411.379 34.3206C410.853 34.081 410.168 33.6314 409.857 33.3214C409.545 33.0114 408.941 32.827 408.514 32.9117C407.905 33.0327 407.765 32.9149 407.863 32.3637C407.959 31.8248 407.88 31.717 407.524 31.8996C407.269 32.0305 406.703 31.9045 406.265 31.6196C405.828 31.3347 405.169 31.2558 404.802 31.4443C404.331 31.6857 404.007 31.5417 403.708 30.9593C403.475 30.5037 402.859 30.078 402.339 30.0129C401.805 29.9459 401.359 29.6248 401.31 29.2727C401.261 28.908 400.757 28.5818 400.093 28.4832C399.47 28.391 398.845 28.0908 398.705 27.8163C398.564 27.5417 397.952 27.2434 397.345 27.1534C396.739 27.0636 395.943 26.6359 395.579 26.2029C395.214 25.77 394.403 25.3398 393.776 25.247C393.149 25.1537 392.52 24.8507 392.378 24.5732C392.235 24.2954 391.408 24.0668 390.54 24.0646C389.313 24.0618 388.717 23.7859 387.869 22.8289C387.269 22.1515 386.417 21.5239 385.975 21.4346C385.534 21.3452 385.074 21.0796 384.954 20.845C384.834 20.6105 384.277 20.4552 383.717 20.5003C383.157 20.5453 382.628 20.4439 382.542 20.2746C382.455 20.1053 381.761 19.9611 380.999 19.9541C379.935 19.9447 379.254 19.5794 378.051 18.3718C376.878 17.1952 376.319 16.8876 375.82 17.1436C375.419 17.3495 374.841 17.1861 374.365 16.7324C373.931 16.3185 373.362 16.0895 373.101 16.2238C372.591 16.4853 371.561 15.7654 371.286 14.9556C371.194 14.6846 370.845 14.5966 370.511 14.7598C369.766 15.1239 368.305 14.8363 368.014 14.2681C367.896 14.0383 367.642 13.931 367.45 14.0297C367.258 14.1283 366.607 14.0455 366.004 13.8455C365.379 13.6386 364.443 13.72 363.829 14.0353C362.953 14.4848 362.498 14.4148 361.4 13.6609C360.657 13.151 359.871 12.8247 359.655 12.9358C359.152 13.1935 357.802 12.4823 357.411 11.7541C357.062 11.1033 353.575 10.0779 351.416 9.99163C350.595 9.95866 349.248 9.68102 348.423 9.37453C347.59 9.06528 346.559 9.00519 346.102 9.23951C345.56 9.51739 345.037 9.43101 344.566 8.98573C343.788 8.25081 341.388 7.42586 341.271 7.85305C341.167 8.23138 339.159 7.60336 338.908 7.11404C338.638 6.58881 336.79 6.60836 335.74 7.14725C335.294 7.37623 334.158 7.33352 333.218 7.05225C332.277 6.77098 331.355 6.61861 331.171 6.7133C330.986 6.80817 330.586 6.59639 330.283 6.2428C329.957 5.8624 329.449 5.74458 329.041 5.9541C328.661 6.149 328.019 6.06154 327.614 5.75976C326.812 5.16072 325.613 5.54424 325.578 6.41097C325.563 6.74787 325.056 6.56892 324.243 5.94104C323.341 5.24469 322.259 4.90641 320.785 4.8602C319.605 4.82285 318.521 4.56212 318.377 4.28099C318.217 3.96871 317.534 3.94403 316.622 4.21724C315.506 4.55242 314.937 4.48129 314.364 3.93447C313.942 3.53262 313.277 3.23534 312.885 3.27423C312.494 3.31275 311.632 3.24981 310.969 3.13433C310.308 3.01869 309.477 3.07337 309.124 3.2563C308.772 3.43905 307.55 3.70386 306.409 3.84457C304.703 4.05493 304.231 3.94294 303.753 3.21285C303.263 2.46436 302.97 2.40672 301.885 2.84451C301.106 3.15823 300.046 3.18201 299.201 2.90411C298.128 2.55199 297.603 2.61061 296.938 3.15801C296.185 3.77888 295.96 3.75677 295.193 2.98631C294.709 2.49948 294.009 2.13784 293.639 2.18253C293.268 2.22721 292.656 2.21789 292.277 2.16237C291.899 2.10648 290.882 2.07714 290.018 2.09751C289.154 2.11768 288.351 1.94557 288.233 1.71539C287.959 1.18209 286.177 1.25379 284.181 1.87875C283.326 2.14637 282.635 2.17137 282.645 1.934C282.655 1.697 282.375 1.65071 282.023 1.83097C281.352 2.17547 279.727 1.66242 279.386 0.998642C279.276 0.784224 278.755 0.69897 278.229 0.809247C277.703 0.919523 277.189 0.847856 277.088 0.650298C276.986 0.452373 276.118 0.693599 275.158 1.186C273.801 1.88224 273.452 1.93742 273.59 1.43482C273.937 0.168894 273.836 0.162309 270.057 1.19998C269.392 1.38246 268.459 1.41569 267.983 1.27391C267.307 1.0731 267.06 1.16564 266.861 1.69432C266.504 2.64243 264.925 2.87851 264.046 2.11528C263.528 1.66645 263.094 1.63281 262.582 2.00244C262.164 2.30502 261.389 2.37198 260.755 2.15995C259.466 1.729 257.434 1.82751 257.155 2.33476C257.048 2.52947 256.452 2.61336 255.831 2.52137C254.969 2.39367 254.591 2.52821 254.232 3.08985C253.883 3.63708 253.586 3.76143 253.075 3.57497C252.065 3.20692 250.927 3.37103 251.172 3.84935C251.288 4.07403 250.776 4.00675 250.036 3.69992C249.295 3.39272 248.778 3.31481 248.887 3.52666C248.996 3.73888 248.707 4.10594 248.246 4.34267C247.784 4.5794 247.491 4.93802 247.595 5.13961C247.944 5.82062 247.123 5.8522 245.155 5.23337C243.507 4.71541 243.048 4.73952 242.264 5.38529C241.519 5.99879 241.269 6.03085 241.019 5.54483C240.762 5.04232 240.622 5.06946 240.219 5.70174C239.84 6.29521 239.402 6.46565 238.267 6.46109C237.461 6.45748 236.262 6.68617 235.601 6.96857C234.941 7.2515 234.112 7.37588 233.761 7.24546C232.878 6.91777 231.874 7.50467 231.981 8.28502C232.029 8.64071 231.899 8.91095 231.69 8.88603C231.337 8.84327 227.251 10.4088 225.957 11.0828C225.639 11.2486 225.211 11.2746 225.008 11.1406C224.316 10.6857 223.305 11.5764 222.921 12.9797C222.6 14.1513 222.381 14.3802 221.572 14.3901C220.863 14.3985 220.628 14.5381 220.691 14.9136C220.75 15.2718 220.477 15.3345 219.783 15.1236C219.237 14.9576 218.612 14.914 218.394 15.0261C218.175 15.1383 217.655 15.2119 217.239 15.1894C215.254 15.0824 213.865 15.6057 213.424 16.6262C213.134 17.2975 206.293 20.7493 205.606 20.5704C205.204 20.4658 204.557 20.9059 203.604 21.9305C202.715 22.8878 202.05 23.3515 201.798 23.1909C201.169 22.7902 198.713 23.825 196.523 25.414C195.419 26.2157 192.077 28.2 189.097 29.8239C184.857 32.1338 183.619 32.959 183.402 33.6176C183.24 34.1125 182.885 34.4305 182.542 34.3889C181.879 34.3094 180.444 35.3371 180.124 36.1216C180.007 36.4099 179.075 37.0372 178.053 37.5164C177.031 37.9953 176.001 38.7052 175.763 39.0942C175.496 39.5311 174.973 39.8299 174.394 39.8766C173.789 39.9255 173.526 40.0869 173.652 40.3328C173.759 40.5421 173.56 40.8044 173.209 40.9163C172.858 41.0282 172.328 41.5113 172.031 41.9901C171.734 42.469 171.252 42.8794 170.961 42.9017C170.669 42.9244 170.36 43.199 170.274 43.5125C170.165 43.9128 169.864 43.9878 169.262 43.7643C168.361 43.4298 167.49 43.6204 168.096 44.0192C168.538 44.3098 167.788 45.3305 166.906 45.6399C166.544 45.767 166.194 46.2018 166.13 46.6057C165.992 47.4667 164.486 48.9103 164.235 48.4217C164.141 48.2377 163.768 48.1104 163.407 48.1383C162.935 48.1749 162.885 48.3182 163.232 48.6468C163.612 49.0071 163.513 49.1467 162.768 49.303C162.031 49.4574 161.894 49.6434 162.15 50.143C162.44 50.7078 162.226 50.8799 160.365 51.5817C158.378 52.3297 157.387 53.3719 158.902 53.1188C159.281 53.0553 158.706 53.4183 157.625 53.9247C156.543 54.4317 155.732 54.9889 155.822 55.1635C155.912 55.338 155.629 55.5518 155.193 55.638C154.744 55.727 154.431 56.0285 154.473 56.3318C154.523 56.6947 153.882 57.1702 152.496 57.7988C151.368 58.3107 150.518 58.8716 150.607 59.045C150.696 59.2187 150.972 59.3353 151.222 59.3037C151.471 59.2727 151.422 59.736 151.114 60.3342C150.806 60.9323 150.475 61.268 150.379 61.0807C150.283 60.8931 149.944 60.9836 149.626 61.2817C149.171 61.7072 149.184 61.8895 149.689 62.1315C150.191 62.3716 150.212 62.5012 149.788 62.719C149.488 62.8726 149.154 62.8234 149.044 62.6101C148.935 62.3968 148.735 62.4213 148.601 62.6652C148.467 62.909 148.14 62.9658 147.876 62.7915C147.53 62.5643 147.286 62.8669 147.013 63.8647C146.662 65.145 146.465 65.3179 144.519 66.051C142.434 66.8366 140.614 68.4894 141.001 69.2452C141.091 69.4211 140.819 69.6336 140.396 69.7176C139.973 69.8013 139.619 70.0665 139.609 70.3062C139.599 70.5464 139.403 70.7197 139.173 70.6922C138.943 70.6648 138.47 71.2961 138.121 72.096C137.679 73.1087 137.24 73.5731 136.676 73.6244C136.12 73.6753 135.84 73.9597 135.783 74.5339C135.737 75.0032 135.094 75.805 134.319 76.361C133.559 76.9063 132.56 77.9734 132.098 78.7321C131.637 79.4912 131.055 80.0872 130.806 80.0576C130.557 80.0275 130.447 80.392 130.563 80.8673C130.68 81.3472 130.501 81.8717 130.161 82.0461C129.825 82.2188 129.54 82.5901 129.528 82.8714C129.517 83.1528 129.095 83.4689 128.592 83.5743C128.089 83.6798 127.751 83.9101 127.841 84.086C127.931 84.262 127.85 85.0689 127.661 85.8794C127.384 87.0623 127.205 87.2812 126.753 86.9911C126.354 86.7341 126.257 86.7627 126.421 87.0901C126.547 87.3436 126.282 87.7399 125.831 87.9711C125.381 88.2023 125.003 88.6042 124.993 88.8643C124.982 89.1244 124.757 89.4481 124.493 89.5836C123.593 90.0453 121.516 93.0984 121.872 93.436C122.077 93.6305 121.658 94.273 120.88 94.9587C119.805 95.9056 119.448 96.0637 119.109 95.7425C118.373 95.044 118.151 95.564 118.813 96.439C119.314 97.1015 119.311 97.2886 118.801 97.3279C118.444 97.3553 117.881 97.9665 117.543 98.6928C117.206 99.416 116.859 99.8738 116.772 99.7102C116.684 99.5468 116.593 99.7356 116.569 100.13C116.541 100.607 116.446 100.694 116.286 100.391C116.154 100.141 115.895 100.013 115.71 100.108C115.525 100.202 115.475 100.489 115.598 100.744C115.942 101.455 115.472 103.471 114.894 103.767C114.612 103.912 113.94 105.298 113.403 106.847C112.865 108.396 112.258 109.749 112.054 109.853C111.851 109.958 111.665 110.47 111.641 110.991C111.617 111.513 111.378 112.052 111.111 112.189C110.458 112.524 109.849 115.075 110.071 116.542C110.202 117.408 110.022 117.841 109.396 118.161C108.927 118.402 108.491 118.991 108.426 119.469C108.337 120.136 108.244 120.217 108.028 119.817C107.83 119.45 107.666 119.64 107.472 120.461C107.32 121.101 107.005 121.602 106.771 121.574C106.538 121.546 106.51 121.842 106.71 122.233C106.911 122.624 106.945 123.287 106.786 123.707C106.628 124.127 106.562 124.929 106.641 125.488C106.742 126.214 106.549 126.583 105.969 126.778C105.324 126.994 105.249 127.221 105.606 127.865C105.855 128.313 105.899 129.422 105.704 130.329C105.51 131.236 105.409 132.093 105.482 132.234C105.554 132.375 105.265 132.928 104.84 133.462C104.287 134.157 104.194 134.683 104.514 135.306C104.791 135.846 104.764 136.279 104.444 136.443C103.775 136.786 101.692 142.07 101.977 142.7C102.214 143.224 101.223 144.602 100.651 144.546C100.457 144.526 100.615 144.886 101.002 145.346C101.635 146.098 101.609 146.231 100.749 146.679C100.087 147.024 99.982 147.202 100.408 147.258C101.197 147.362 101.309 149.163 100.55 149.552C100.27 149.695 100.136 150.389 100.254 151.093C100.371 151.796 100.379 152.443 100.271 152.53C100.163 152.617 99.5792 153.022 98.9724 153.43C97.049 154.723 96.6323 155.068 96.3302 155.617C96.1479 155.948 95.8223 156.019 95.4779 155.801C95.0066 155.503 94.9144 155.553 94.8811 156.125C94.8469 156.705 94.6398 156.799 93.4402 156.784C92.1518 156.768 92.0314 156.832 91.9445 157.577C91.8679 158.234 91.6606 158.387 90.8522 158.384C90.303 158.382 88.8141 158.958 87.5434 159.662C86.1496 160.435 84.6112 160.993 83.6657 161.069C82.3267 161.176 82.0922 161.292 82.0588 161.862C82.03 162.351 81.893 162.451 81.5484 162.234C81.1022 161.954 79.1902 162.796 79.3875 163.185C79.4386 163.286 78.803 163.743 77.9748 164.201C76.8199 164.839 76.45 164.894 76.3872 164.436C76.3403 164.094 76.0925 163.95 75.8045 164.097C75.529 164.239 75.3729 164.853 75.4581 165.462C75.5609 166.195 75.3837 166.637 74.934 166.772C74.5607 166.884 74.1186 167.338 73.9517 167.781C73.4565 169.094 69.4855 170.699 68.3857 170.031C68.1076 169.861 68.058 170.003 68.257 170.4C68.5033 170.889 68.2994 171.188 67.4062 171.646C66.7602 171.978 66.1469 172.084 66.0435 171.882C65.7538 171.317 65.215 171.757 64.8981 172.817C64.5993 173.816 64.2341 174.243 63.1348 174.882C62.7739 175.092 62.3737 175.506 62.2457 175.803C62.1175 176.099 61.6631 176.391 61.2361 176.451C60.8091 176.511 60.4508 176.782 60.4395 177.053C60.4285 177.324 60.1389 177.689 59.7959 177.865C59.4532 178.041 59.2089 178.387 59.2532 178.634C59.2974 178.881 58.711 179.508 57.9497 180.027C56.7552 180.842 56.5842 180.868 56.6997 180.219C56.8938 179.126 55.9392 179.132 55.6394 180.226C55.5078 180.706 55.1484 181.118 54.841 181.142C54.5304 181.166 54.3997 181.415 54.5469 181.702C54.9321 182.453 54.528 182.977 52.7171 184.075C51.8313 184.612 51.0078 185.293 50.8874 185.588C50.6063 186.277 49.4869 186.852 48.7633 186.678C48.3944 186.59 48.1088 186.932 47.9331 187.674C47.7392 188.495 47.423 188.839 46.7811 188.93C46.0928 189.027 46.0015 189.155 46.3697 189.504C46.7255 189.841 46.6102 190.047 45.9051 190.333C45.3892 190.542 44.6193 190.723 44.1943 190.736C43.7017 190.751 43.4129 190.974 43.3972 191.352C43.381 191.746 42.9764 192.041 42.1841 192.233C41.3213 192.443 41.0861 192.636 41.3258 192.936C41.5374 193.2 41.2496 193.576 40.5261 193.979C39.9047 194.326 39.438 194.842 39.4891 195.126C39.5401 195.409 39.3863 195.742 39.1474 195.864C38.9084 195.987 38.6501 196.441 38.5731 196.875C38.4963 197.308 38.1631 197.683 37.8324 197.708C37.5021 197.734 36.8853 198.353 36.4622 199.084C35.5787 200.612 34.9491 201.043 34.3858 200.506C34.1233 200.256 33.8671 200.619 33.6193 201.594C33.4151 202.399 33.0865 203.14 32.8898 203.241C32.6928 203.342 32.7217 203.605 32.9544 203.826C33.4034 204.251 31.8605 206.374 30.9205 206.625C30.5646 206.719 30.5822 206.971 30.9766 207.431C31.4289 207.958 31.3846 208.241 30.767 208.769C29.3519 209.98 29.2627 210.168 29.4822 211.485C29.6279 212.362 29.4903 212.851 29.0623 212.98C28.7116 213.085 28.2777 213.559 28.0975 214.033C27.8479 214.69 27.6805 214.803 27.3938 214.51C26.7607 213.861 26.4599 214.342 26.7593 215.525C27.0312 216.598 26.8474 217.43 26.2693 217.742C26.1215 217.821 26.0093 217.674 26.02 217.414C26.0675 216.259 25.3719 217.458 24.6824 219.72C24.2684 221.078 23.7856 222.263 23.6094 222.354C23.4332 222.444 23.4478 222.622 23.6413 222.75C24.1787 223.103 23.0512 224.986 22.2653 225.046C21.8701 225.077 21.5282 225.403 21.4678 225.808C21.4096 226.197 20.9646 227.321 20.4786 228.305C19.5545 230.177 19.5398 230.678 20.4101 230.651C20.6969 230.642 20.4279 230.768 19.8121 230.932C19.196 231.094 18.8728 231.302 19.0935 231.394C19.314 231.485 19.0858 232.156 18.5862 232.884C17.2379 234.85 16.3219 236.456 16.266 236.951C16.2391 237.193 15.8625 237.46 15.4293 237.547C14.7998 237.671 14.721 237.907 15.0359 238.723C15.3046 239.42 15.2224 239.895 14.7775 240.219C14.4185 240.479 14.1636 241.183 14.2108 241.783C14.2581 242.382 14.153 242.972 13.9774 243.094C13.802 243.216 13.5602 243.404 13.4405 243.511C13.321 243.618 12.8321 244.06 12.3547 244.493C11.7708 245.022 11.5187 245.749 11.5857 246.713C11.6516 247.662 11.4236 248.335 10.911 248.704C10.0204 249.344 9.4622 251.164 10.0394 251.544C10.3716 251.762 9.54971 252.486 8.65025 252.768C8.49975 252.815 8.46096 253.019 8.56437 253.22C8.66777 253.422 8.55806 253.686 8.32043 253.808C8.07677 253.933 8.11083 254.55 8.39793 255.221C8.67848 255.876 8.89484 256.651 8.87915 256.942C8.86333 257.234 8.93218 257.638 9.0319 257.842C9.13195 258.045 8.86876 258.394 8.44682 258.617C8.02541 258.84 7.66887 259.259 7.65449 259.548C7.64064 259.838 7.36047 260.295 7.03246 260.564C6.64066 260.886 6.58798 261.329 6.87937 261.854C7.1237 262.294 7.19824 262.717 7.04486 262.796C6.89181 262.875 6.89354 263.186 7.04865 263.489C7.20376 263.791 7.19546 264.532 7.03014 265.135C6.86466 265.739 6.92009 266.358 7.15281 266.511C7.43773 266.698 7.16884 266.908 6.33142 267.152C5.64683 267.352 5.32374 267.513 5.61369 267.509C5.90364 267.506 6.22237 267.663 6.3224 267.858C6.57396 268.348 5.54171 272.158 5.1379 272.229C4.95721 272.261 4.98275 272.456 5.19436 272.663C5.73133 273.187 5.61608 274.039 4.93427 274.589C4.43457 274.993 4.19199 276.465 4.29581 278.464C4.31258 278.786 4.09223 279.941 3.80616 281.031C3.5201 282.122 3.30423 283.569 3.32617 284.249C3.34826 284.929 3.19365 285.465 2.98257 285.439C2.7715 285.414 2.7073 285.61 2.83999 285.875C3.01815 286.232 2.92855 286.259 2.49398 285.98C2.02245 285.677 1.93907 285.831 2.06995 286.768C2.17988 287.554 2.03029 287.948 1.60981 287.98C1.10996 288.019 1.13349 288.22 1.72778 288.993C2.33322 289.782 2.37774 290.275 1.97164 291.695C1.69808 292.65 1.35214 293.495 1.20245 293.571C1.0531 293.648 1.05748 293.958 1.2126 294.261C1.36771 294.563 1.34359 294.888 1.15899 294.983C0.974397 295.077 0.950276 295.402 1.10539 295.705C1.2605 296.007 1.25381 296.323 1.09104 296.406C0.760106 296.576 0.988592 298.384 1.50678 299.698C1.59638 299.925 1.4965 301.018 1.28458 302.127C0.989997 303.672 1.06986 304.449 1.62723 305.453C2.14376 306.384 2.20273 306.775 1.83116 306.804C1.5371 306.826 1.4432 307.107 1.61636 307.445C1.78595 307.775 1.75221 308.25 1.54157 308.5C1.33113 308.75 1.38053 309.395 1.65175 309.933C2.55988 311.738 2.97456 313.111 2.7419 313.54C2.61519 313.774 2.67259 314.733 2.86963 315.67C3.12855 316.902 3.00281 317.785 2.41579 318.852C1.72493 320.107 1.70621 320.475 2.28918 321.314C2.66666 321.857 2.91454 322.642 2.84015 323.06C2.73728 323.64 2.80065 323.771 3.10775 323.613C3.32926 323.5 3.30608 324.153 3.05632 325.064C2.71785 326.299 2.76341 326.913 3.23543 327.474C3.66882 327.988 3.74514 328.429 3.47735 328.867C3.20621 329.311 3.35655 330.137 3.9662 331.555C4.79957 333.492 8.33291 341.233 9.53897 343.764C9.8846 344.489 9.91701 344.95 9.62414 344.972C8.89094 345.029 8.821 346.384 9.48159 347.743C9.81029 348.419 10.0423 349.394 9.99691 349.909C9.93776 350.579 10.3595 351.579 11.4854 353.437C13.2093 356.281 13.7475 358.008 12.5808 356.949C11.961 356.387 11.9484 356.399 12.3281 357.195C12.5479 357.655 12.8485 357.969 12.9958 357.894C13.4261 357.673 14.4322 360.581 14.1603 361.258C14.0114 361.629 14.3953 362.958 15.1232 364.591C15.9271 366.394 16.263 367.625 16.1237 368.254C16.0085 368.775 16.006 369.381 16.1184 369.6C16.231 369.82 16.2045 370.129 16.0599 370.289C15.9154 370.447 15.9662 371.012 16.173 371.542C16.4738 372.313 16.6735 372.417 17.1686 372.061C17.7408 371.648 17.7636 371.674 17.4699 372.405C17.0504 373.449 17.9272 376.65 18.739 377.039C19.1668 377.244 19.299 377.543 19.2022 378.088C19.1279 378.507 19.3214 379.146 19.6323 379.508C19.9432 379.87 20.2141 380.714 20.2345 381.383C20.2557 382.08 20.4493 382.621 20.6874 382.649C21.2309 382.715 21.9673 384.267 22.0545 385.533C22.1037 386.243 22.4483 386.888 23.243 387.755C24.6425 389.283 25.4652 390.85 24.9946 391.091C24.6124 391.288 25.2354 392.079 26.9414 393.565C27.4933 394.046 28.2638 394.797 28.6535 395.233C29.0433 395.67 29.8686 396.32 30.4881 396.678C31.1077 397.036 31.7579 397.609 31.9331 397.951C32.3208 398.706 34.2966 400.366 36.1334 401.478C36.8793 401.929 38.0944 403.066 38.834 404.003C39.5735 404.941 40.8253 406.051 41.6157 406.469C42.4057 406.888 43.1578 407.436 43.2866 407.687C43.4154 407.938 43.9828 408.598 44.5469 409.153C45.5895 410.178 46.7384 410.313 47.7966 409.536C48.5163 409.007 50.4081 409.068 50.3855 409.619C50.3763 409.84 50.6985 409.851 51.1009 409.645C51.7188 409.328 51.7224 409.216 51.1221 408.928C50.0309 408.405 50.3841 408.107 52.0958 408.107C53.0928 408.107 53.793 408.364 54.0512 408.826C54.3639 409.386 54.427 409.251 54.3347 408.218L54.2167 406.889L55.0183 407.816L55.8194 408.742L55.6916 407.47C55.582 406.38 55.6464 406.273 56.1449 406.722C56.5591 407.096 56.7889 407.079 56.9459 406.662C57.067 406.342 57.3339 406.141 57.5388 406.218C57.7441 406.294 57.933 406.138 57.9584 405.872C58.0093 405.344 59.0674 403.244 59.3577 403.095C59.4564 403.044 59.6642 403.25 59.8193 403.552C60.1269 404.152 60.7549 404.03 60.6545 403.39C60.5599 402.788 62.1418 401.468 62.3865 401.945C62.4991 402.165 62.2666 402.641 61.87 403.005C60.5556 404.208 61.3649 404.163 63.518 402.911C65.3806 401.829 65.683 401.758 65.9843 402.335C66.1974 402.742 66.3418 402.788 66.3642 402.456C66.3844 402.161 66.7881 401.746 67.2613 401.533C68.0253 401.189 68.0439 401.023 67.4299 400.053C66.7765 399.021 66.7989 398.939 67.8327 398.564C68.6419 398.271 68.8508 398.018 68.6335 397.594C68.4718 397.279 68.4867 397.029 68.6662 397.038C68.846 397.047 69.5922 397.015 70.3247 396.966C71.057 396.916 71.7575 397.065 71.8807 397.295C72.0039 397.525 72.629 397.965 73.2698 398.273C74.1255 398.684 74.2884 398.679 73.8824 398.255C73.4628 397.816 73.4862 397.664 73.9787 397.626C74.6573 397.574 75.6168 395.994 75.3704 395.335C75.292 395.125 75.1719 394.798 75.1038 394.609C74.9901 394.292 76.0446 393.033 76.1884 393.314C76.223 393.381 76.147 393.817 76.0197 394.283C75.8085 395.053 75.8777 395.083 76.7792 394.621C77.4888 394.257 77.7141 393.878 77.5705 393.289C77.46 392.836 77.5351 392.381 77.7369 392.278C78.244 392.018 78.7129 393.039 78.305 393.514C78.0938 393.76 78.2708 393.881 78.7932 393.846C79.2442 393.816 79.8562 393.956 80.1527 394.156C80.5838 394.447 80.7404 394.28 80.9319 393.328C81.1389 392.3 81.0901 392.158 80.5775 392.292C79.8847 392.472 79.5488 392.007 79.9052 391.359C80.0416 391.111 80.4333 391.109 80.7757 391.356C81.337 391.759 81.4417 391.712 81.8397 390.875C82.438 389.617 83.8503 388.899 83.9727 389.791C84.0244 390.17 84.3244 390.436 84.6685 390.41C85.0013 390.384 85.4384 390.685 85.6403 391.078C85.8422 391.472 86.1061 391.614 86.2267 391.395C86.3474 391.176 86.2783 390.669 86.0729 390.269C85.8219 389.78 85.9098 389.478 86.3424 389.348C86.7455 389.226 86.8662 388.919 86.6662 388.524C86.4911 388.177 86.5163 387.518 86.7223 387.06C86.9593 386.534 86.9073 386.103 86.5805 385.888C86.2229 385.653 86.24 385.57 86.6362 385.617C86.9546 385.655 87.2182 385.445 87.2309 385.143C87.2557 384.532 91.8287 380.831 92.4653 380.905C92.6905 380.932 92.6171 380.653 92.3021 380.286C91.9202 379.841 91.8598 379.249 92.1195 378.507C92.3341 377.896 92.4674 377.133 92.4159 376.813C92.3645 376.493 92.5197 376.297 92.7612 376.378C93.0029 376.459 93.0695 376.763 92.909 377.055C92.6883 377.456 92.7486 377.6 93.1571 377.649C94.0418 377.755 94.0986 376.709 93.243 376.07C92.2122 375.301 92.1783 375.147 92.9509 374.751C93.3201 374.562 93.5375 374.242 93.4341 374.04C93.3307 373.839 93.0457 373.776 92.8007 373.902C92.5023 374.055 92.2253 373.763 91.9611 373.017C91.7439 372.404 90.9724 371.295 90.2467 370.553C89.0757 369.355 88.9609 369.128 89.2261 368.539C89.4519 368.037 89.3517 367.747 88.8153 367.348C88.425 367.057 87.5209 366.286 86.8058 365.635C86.0908 364.983 85.2451 364.256 84.9262 364.02C84.1586 363.452 83.5457 361.442 84.1625 361.516C84.462 361.552 84.439 361.389 84.1018 361.079C83.8059 360.807 83.3455 360.384 83.0783 360.139C82.8111 359.894 82.7637 359.606 82.9728 359.499C83.2349 359.364 83.0482 359.066 82.3698 358.535C81.829 358.112 81.3503 357.536 81.3056 357.254C81.261 356.973 80.902 356.502 80.5076 356.208C79.9644 355.802 79.8559 355.499 80.0603 354.957C80.2135 354.551 80.096 353.995 79.7884 353.669C79.1278 352.969 79.1383 351.975 79.8099 351.63C80.4113 351.322 79.6258 349.267 78.7452 348.845C78.4132 348.686 77.835 347.931 77.4596 347.167C76.7126 345.644 76.4323 342.323 77.0683 342.522C77.2871 342.591 77.2488 342.495 76.9834 342.309C76.7178 342.122 76.4086 342.137 76.2964 342.341C76.1839 342.545 75.96 342.455 75.7989 342.141C75.6377 341.827 75.6598 341.49 75.8478 341.394C76.0438 341.293 75.9032 340.878 75.518 340.42C74.7755 339.539 73.6317 335.532 73.9388 334.891C74.0453 334.667 73.7868 333.862 73.3639 333.102C72.5155 331.578 72.3629 330.241 73.0923 330.721C73.8205 331.2 74.246 330.703 73.6486 330.07C73.3284 329.731 73.1873 329.127 73.3172 328.653C73.4418 328.199 73.2968 327.346 72.9948 326.757C72.6931 326.169 72.5544 325.146 72.6862 324.485C72.8612 323.611 72.7794 323.265 72.3859 323.218C72.0064 323.172 71.9596 322.596 72.2289 321.289C72.44 320.264 72.4969 318.967 72.3554 318.408C72.2139 317.849 72.2073 317.335 72.3409 317.266C72.4744 317.198 72.3561 315.984 72.0779 314.57C71.7993 313.156 71.7056 311.836 71.8692 311.638C72.0332 311.439 71.9287 310.998 71.637 310.659C71.2877 310.251 71.275 309.843 71.6004 309.463C72.1871 308.776 72.414 307.429 71.9894 307.15C71.824 307.041 71.9192 306.834 72.2014 306.689C72.5193 306.526 72.5333 306.255 72.2389 305.976C71.8934 305.648 71.9958 305.406 72.6134 305.089C73.3883 304.692 73.3924 304.547 72.6591 303.445C72.217 302.781 71.992 302.167 72.1591 302.081C72.6062 301.852 72.3553 298.308 71.8884 298.251C71.1962 298.168 71.1971 297.707 71.8909 296.505C72.2613 295.864 72.4067 295.032 72.2138 294.656C72.0208 294.279 72.1822 293.084 72.5721 291.999C73.0585 290.646 73.1071 290.027 72.7262 290.027C72.421 290.027 72.5352 289.924 72.98 289.798C73.4467 289.666 73.754 289.312 73.7059 288.961C73.66 288.627 73.93 287.991 74.3059 287.548C74.6814 287.105 74.8401 286.645 74.6585 286.525C74.4772 286.406 74.3924 285.536 74.4705 284.594C74.5487 283.65 74.4663 282.824 74.2874 282.758C74.1087 282.692 74.1841 282.524 74.4546 282.385C74.7255 282.246 75.0292 281.832 75.1297 281.465C75.2304 281.098 75.5701 280.664 75.8848 280.499C76.334 280.264 76.2946 279.935 75.7008 278.968C75.1926 278.14 75.1276 277.846 75.5026 278.072C75.9226 278.324 75.9923 278.135 75.7829 277.307C75.5893 276.543 75.6938 276.192 76.1252 276.159C76.5903 276.123 76.6049 275.961 76.1831 275.514C75.7837 275.091 75.7797 274.75 76.1687 274.343C76.471 274.027 76.6459 273.395 76.5573 272.937C76.4689 272.479 76.6281 271.655 76.9112 271.105C77.1944 270.556 77.3045 269.869 77.1558 269.579C77.0069 269.288 77.0066 268.285 77.1548 267.35C77.3664 266.012 77.5867 265.657 78.1824 265.689C78.7655 265.721 78.9027 265.536 78.7775 264.889C78.688 264.426 78.8169 263.943 79.0642 263.816C79.3394 263.675 79.3117 263.351 78.993 262.979C78.7069 262.645 78.5799 262.177 78.7113 261.939C78.8424 261.7 79.0366 261.675 79.143 261.882C79.2493 262.089 79.5241 262.036 79.7534 261.763C80.0891 261.365 80.0525 261.253 79.5651 261.189C79.1257 261.133 79.1946 260.833 79.8171 260.097C80.2886 259.54 80.5634 258.866 80.4275 258.601C80.0797 257.923 80.2657 255.792 80.6917 255.574C80.8867 255.474 81.1759 254.997 81.3344 254.515C81.4928 254.032 81.8357 253.481 82.0967 253.29C82.3576 253.098 82.728 252.464 82.9199 251.879C83.2171 250.975 83.3546 250.873 83.8447 251.195C84.3286 251.513 84.4409 251.416 84.551 250.583C84.623 250.038 84.6234 249.466 84.5515 249.311C84.4799 249.157 84.6524 248.912 84.935 248.767C85.218 248.622 85.408 248.204 85.3577 247.837C85.3076 247.47 85.5319 247.082 85.8565 246.975C86.812 246.66 87.6929 245.492 87.402 244.925C87.2539 244.636 87.4011 244.262 87.729 244.093C88.0573 243.925 88.5238 243.371 88.7656 242.862C89.0495 242.265 89.3496 242.032 89.6116 242.205C89.8351 242.351 90.1111 242.302 90.2254 242.094C90.3397 241.886 90.2823 241.617 90.0976 241.495C89.9128 241.374 90.1666 240.945 90.6619 240.543C91.1574 240.141 91.9555 239.494 92.4358 239.104C92.9164 238.715 93.2724 238.127 93.2272 237.798C93.169 237.372 93.5241 237.082 94.4541 236.796C95.4253 236.497 95.8496 236.13 96.098 235.373C96.2948 234.773 96.908 234.128 97.5864 233.806C98.4501 233.397 98.6273 233.152 98.291 232.833C97.9304 232.491 98.0459 232.39 98.8789 232.323C99.5832 232.267 99.8902 232.095 99.835 231.789C99.6998 231.036 101.359 230.16 101.918 230.689C102.34 231.089 102.433 230.999 102.52 230.105C102.603 229.242 102.955 228.876 104.421 228.124C105.502 227.569 106.184 227.001 106.13 226.702C106.081 226.427 106.283 226.232 106.579 226.267C107.235 226.346 108.476 228.653 108.166 229.216C108.043 229.44 108.105 229.728 108.302 229.858C108.5 229.989 108.666 230.566 108.67 231.142C108.675 231.718 109.345 233.538 110.159 235.186C111.34 237.576 111.61 238.472 111.491 239.61C111.388 240.601 111.527 241.169 111.945 241.47C112.365 241.772 112.489 242.297 112.351 243.202C112.203 244.183 112.321 244.625 112.834 245.008C113.534 245.53 114.532 248.572 114.371 249.69C114.263 250.446 115.272 253.778 116.301 256.062C116.768 257.098 117.141 258.168 117.13 258.439C117.089 259.444 117.754 262.669 118.042 262.859C118.206 262.967 118.546 263.797 118.798 264.704C119.067 265.673 119.423 266.373 119.661 266.402C119.883 266.429 120.394 267.091 120.795 267.873C121.197 268.656 121.738 269.322 121.999 269.353C122.322 269.392 122.432 269.641 122.344 270.136C122.256 270.629 122.584 271.378 123.363 272.466C123.994 273.348 124.768 274.527 125.082 275.087C125.396 275.646 126.013 276.177 126.452 276.266C127.31 276.44 128.475 278.398 128.52 279.739C128.536 280.207 128.726 280.53 129.006 280.563C129.26 280.594 129.459 280.802 129.45 281.027C129.441 281.251 129.632 281.458 129.875 281.487C130.151 281.52 130.371 281.927 130.461 282.572C130.567 283.328 130.801 283.655 131.337 283.799C131.791 283.921 132.017 284.187 131.931 284.499C131.767 285.097 133.35 287.63 134.437 288.508C134.858 288.848 135.296 289.509 135.409 289.976C135.523 290.443 135.809 290.849 136.044 290.877C136.279 290.906 136.539 291.276 136.621 291.7C136.703 292.124 136.947 292.493 137.164 292.519C137.38 292.545 137.903 293.336 138.325 294.277C138.748 295.218 139.211 295.927 139.354 295.854C139.757 295.647 142.106 297.981 142.082 298.563C142.071 298.848 142.606 300.231 143.272 301.637C144.208 303.611 144.664 304.242 145.276 304.406C145.94 304.584 146.073 304.511 146.096 303.954C146.142 302.823 146.908 303.511 147.099 304.855C147.258 305.975 147.426 306.176 148.508 306.545C149.183 306.775 149.881 307.241 150.059 307.579C150.282 308.005 150.736 308.058 151.531 307.75C152.421 307.405 152.803 307.483 153.224 308.094C153.522 308.528 153.711 309.198 153.642 309.584C153.544 310.138 153.789 310.324 154.803 310.464C157.025 310.772 157.932 311.2 158.32 312.122C158.944 313.607 159.218 313.906 159.718 313.649C160.501 313.248 163.176 314.161 163.273 314.863C163.32 315.212 163.672 315.647 164.053 315.83C164.609 316.096 164.66 316.218 164.308 316.442C164.068 316.596 164.378 316.595 164.998 316.44C165.866 316.223 166.504 316.461 167.779 317.481C168.755 318.262 170.073 318.882 170.992 318.992C171.849 319.095 172.628 319.331 172.723 319.516C172.818 319.701 173.131 319.732 173.419 319.584C173.706 319.437 173.933 319.527 173.923 319.784C173.912 320.051 174.078 320.044 174.313 319.766C174.593 319.433 174.833 319.497 175.076 319.971C175.271 320.351 175.828 320.786 176.315 320.939C176.801 321.092 177.613 321.399 178.119 321.621C179.539 322.247 180.725 322.512 181.281 322.331C182.243 322.018 183.727 322.763 184.125 323.759C184.404 324.456 184.719 324.686 185.215 324.557C185.647 324.444 185.751 324.267 185.485 324.093C185.219 323.917 185.296 323.792 185.689 323.762C186.038 323.735 186.439 323.941 186.582 324.22C186.725 324.499 187.555 324.833 188.425 324.962C189.295 325.09 190.213 325.437 190.466 325.731C191.13 326.505 193.73 326.557 193.761 325.797C193.778 325.382 194.009 325.383 194.57 325.802C195.002 326.124 195.643 326.24 195.995 326.06C196.346 325.879 196.808 325.845 197.019 325.985C197.231 326.124 198.1 326.216 198.951 326.19C201.99 326.096 203.828 326.271 204.702 326.736C205.093 326.945 206.318 327.085 207.423 327.046C208.529 327.008 210.069 327.185 210.845 327.44C211.683 327.715 212.65 327.701 213.226 327.406C213.76 327.132 214.362 327.018 214.566 327.152C215.078 327.489 219.786 327.745 220.33 327.466C220.574 327.34 220.859 327.403 220.962 327.604C221.065 327.806 221.247 327.88 221.364 327.769C221.482 327.657 222.39 327.585 223.382 327.607C224.514 327.633 225.155 327.479 225.104 327.193C225.057 326.931 225.453 326.897 226.036 327.114C226.594 327.321 227.44 327.319 227.915 327.109C229.16 326.559 231.449 326.451 233.649 326.837C234.945 327.065 235.803 326.976 236.316 326.562C236.731 326.226 237.144 326.093 237.234 326.267C237.323 326.44 237.839 326.355 238.381 326.077C238.922 325.799 239.889 325.544 240.528 325.511C241.167 325.477 241.941 325.274 242.247 325.06C242.793 324.677 245.602 324.27 247.621 324.28C248.184 324.282 249.523 323.826 250.598 323.266C251.673 322.705 252.61 322.357 252.679 322.493C252.749 322.628 253.486 322.741 254.317 322.745C255.454 322.75 255.889 322.591 256.072 322.107C256.247 321.641 256.435 321.541 256.748 321.747C256.987 321.904 257.483 321.816 257.851 321.551C258.257 321.259 258.58 321.267 258.672 321.571C258.85 322.162 259.197 322.033 259.638 321.211C259.824 320.865 260.175 320.677 260.481 320.759C261.519 321.038 269.336 316.121 268.975 315.416C268.885 315.241 269.199 314.898 269.672 314.655C270.146 314.412 270.726 313.91 270.963 313.54C271.199 313.17 272.178 312.425 273.139 311.884C274.101 311.343 275.16 310.485 275.493 309.978C275.826 309.471 276.432 309.008 276.84 308.951C277.247 308.893 277.43 308.744 277.246 308.62C277.063 308.496 278.12 307.723 279.598 306.902C281.075 306.081 282.249 305.219 282.207 304.985C282.111 304.451 283.253 303.839 283.743 304.162C284.286 304.518 285.692 302.987 286.867 300.762C287.427 299.7 287.975 298.784 288.085 298.728C288.356 298.589 291.869 292.305 292.212 291.348C292.362 290.929 293.227 289.429 294.134 288.016C295.041 286.603 296.059 284.8 296.397 284.011C296.734 283.221 297.171 282.493 297.368 282.392C297.565 282.291 297.642 282.043 297.538 281.842C297.435 281.64 297.558 281.369 297.813 281.238C298.067 281.108 298.339 280.636 298.419 280.191C298.498 279.745 299.111 278.663 299.78 277.785C300.45 276.908 300.929 276.056 300.845 275.892C300.761 275.728 300.994 275.439 301.364 275.25C301.733 275.06 301.913 274.667 301.764 274.376C301.614 274.085 301.795 273.323 302.166 272.681C302.536 272.04 302.783 271.404 302.713 271.269C302.643 271.133 303.074 270.63 303.671 270.152C304.367 269.593 304.688 269.007 304.568 268.514C304.362 267.668 304.921 266.784 305.609 266.867C305.852 266.896 305.952 266.515 305.832 266.021C305.669 265.353 305.747 265.21 306.135 265.465C306.538 265.73 306.726 265.517 306.96 264.53C307.189 263.562 307.152 263.382 306.81 263.788C306.505 264.151 306.265 264.144 306.071 263.765C305.913 263.457 306.002 263.231 306.27 263.264C306.538 263.296 306.875 262.823 307.019 262.212C307.164 261.602 307.42 261.032 307.589 260.945C307.973 260.748 308.704 258.153 308.491 257.74C308.405 257.572 308.456 257.113 308.604 256.72C309.034 255.58 308.627 255.32 307.659 256.117C306.659 256.941 305.913 256.329 306.85 255.452C307.323 255.009 307.267 254.802 306.406 253.823C305.554 252.855 305.466 252.551 305.763 251.6C305.952 250.995 305.907 250.311 305.664 250.079C305.42 249.848 305.382 249.577 305.578 249.476C305.774 249.375 306.187 248.753 306.494 248.094C306.801 247.435 307.202 246.952 307.386 247.019C307.569 247.088 307.541 246.796 307.323 246.371C307.105 245.946 307.025 245.419 307.146 245.2C307.267 244.98 307.455 244.976 307.565 245.189C307.674 245.402 307.915 245.5 308.099 245.405C308.57 245.163 308.275 244.719 307.283 244.176C306.446 243.718 306.434 243.724 306.297 244.709C306.22 245.258 306.331 245.879 306.541 246.089C306.752 246.299 306.702 246.585 306.431 246.724C306.157 246.864 305.766 246.641 305.551 246.222C305.338 245.807 305.367 245.492 305.616 245.522C305.864 245.552 305.949 245.346 305.805 245.065C305.661 244.784 305.839 243.662 306.202 242.573C306.897 240.485 306.725 240.091 305.411 240.765C304.962 240.996 304.617 240.969 304.628 240.704C304.639 240.444 305.085 240.006 305.621 239.732C306.486 239.288 306.526 239.119 305.984 238.216C305.599 237.575 305.254 237.342 305.048 237.586C304.869 237.798 304.344 237.611 303.881 237.169C302.785 236.124 302.788 236.14 303.654 235.969C304.095 235.881 304.43 236.067 304.48 236.428C304.525 236.761 304.73 236.948 304.934 236.843C305.138 236.739 305.127 236.275 304.909 235.814C304.691 235.354 304.694 235.143 304.917 235.348C305.139 235.552 305.54 235.606 305.808 235.469C306.201 235.267 306.144 235.106 305.514 234.635C304.904 234.18 304.796 233.931 305.025 233.504C305.254 233.075 305.195 233.018 304.747 233.242C304.433 233.4 304.168 233.741 304.157 234.001C304.127 234.728 303.634 234.827 302.457 234.342L301.381 233.899L301.527 232.504C301.667 231.15 302.441 230.241 302.821 230.983C302.924 231.184 303.16 231.272 303.345 231.177C303.529 231.082 303.502 230.657 303.284 230.233C303.009 229.697 302.767 229.604 302.493 229.93C302.25 230.218 301.989 230.187 301.815 229.849C301.66 229.547 301.711 229.088 301.929 228.83C302.146 228.572 302.197 228.113 302.042 227.811C301.875 227.486 301.606 227.443 301.384 227.708C301.177 227.953 300.705 228.009 300.336 227.832C299.38 227.374 299.672 226.116 300.877 225.498C302.141 224.85 302.42 223.59 301.638 222.066C301.119 221.053 300.863 220.876 300.322 221.153C299.949 221.344 299.526 221.253 299.369 220.948C299.214 220.645 298.92 220.483 298.716 220.588C298.512 220.693 298.491 220.186 298.669 219.463C298.847 218.739 299.164 218.056 299.373 217.944C299.582 217.833 299.714 217.453 299.665 217.1C299.613 216.714 299.844 216.438 300.245 216.406C300.833 216.361 300.81 216.288 300.059 215.799C299.591 215.494 299.083 215.307 298.932 215.385C298.781 215.462 298.826 215.637 299.033 215.773C299.239 215.908 299.201 216.345 298.947 216.742C298.304 217.751 298.001 217.834 298.156 216.96C298.229 216.552 298.118 216.107 297.911 215.97C297.704 215.834 297.49 215.406 297.438 215.019C297.35 214.382 297.442 214.331 298.417 214.475C299.649 214.658 300.27 214.439 300.003 213.918C299.901 213.721 299.388 213.649 298.861 213.759C298.335 213.87 297.829 213.813 297.737 213.633C297.5 213.172 297.993 212.989 298.734 213.264C299.223 213.445 299.298 213.371 299.072 212.931C298.912 212.619 298.325 212.22 297.767 212.044C297.208 211.868 296.69 211.529 296.615 211.29C296.305 210.306 295.072 209.431 294.668 209.91C294.335 210.305 294.284 210.257 294.393 209.647C294.489 209.105 294.789 208.878 295.48 208.822C296.307 208.755 296.407 208.582 296.231 207.525C296.119 206.854 295.89 206.254 295.722 206.191C295.553 206.128 295.667 205.948 295.974 205.79C296.282 205.632 296.407 205.256 296.252 204.954C296.055 204.569 295.615 204.586 294.795 205.006C294.149 205.338 293.538 205.449 293.438 205.254C293.338 205.059 293.494 204.881 293.786 204.858C294.077 204.836 294.451 204.251 294.618 203.56C294.9 202.389 294.863 202.288 294.088 202.082C293.443 201.91 293.277 201.98 293.349 202.391C293.441 202.908 292.598 203.616 292.386 203.202C292.327 203.088 292.379 202.261 292.502 201.366C292.75 199.547 292.399 199.149 291.492 200.219C290.921 200.892 290.403 200.989 290.138 200.472C290.073 200.347 290.332 200.052 290.712 199.816C291.584 199.273 291.925 198.124 291.194 198.192C290.916 198.218 290.561 197.991 290.405 197.688C290.181 197.25 289.878 197.325 288.938 198.049C287.624 199.061 286.85 198.889 287.187 197.659C287.305 197.226 287.256 196.818 287.078 196.751C286.9 196.685 286.9 196.556 287.078 196.465C287.257 196.373 287.699 196.406 288.06 196.539C288.588 196.733 288.608 196.676 288.165 196.254C287.781 195.888 287.777 195.643 288.152 195.451C288.449 195.298 288.554 194.906 288.387 194.58C288.178 194.173 288.002 194.157 287.83 194.527C287.488 195.264 285.767 196.093 285.628 195.588C285.567 195.365 285.801 195.086 286.148 194.968C286.496 194.851 286.707 194.611 286.617 194.435C286.527 194.259 286.711 193.874 287.026 193.579C288.065 192.607 287.259 192.138 286.119 193.052C285.035 193.922 284.871 193.845 284.678 192.378C284.594 191.735 284.341 191.512 283.68 191.496C283.193 191.484 282.369 190.999 281.849 190.418C280.992 189.463 280.82 189.431 280.028 190.083C279.28 190.699 279.141 190.693 279.066 190.04C278.862 188.248 278.654 187.823 278.117 188.098C277.38 188.476 277.197 187.987 277.681 186.933C278.248 185.697 277.792 185.039 276.871 185.768C275.916 186.523 275.737 186.166 276.162 184.351C276.436 183.18 276.393 182.964 275.936 183.199C275.327 183.511 273.974 182.944 273.576 182.21C273.441 181.961 273.557 181.641 273.834 181.499C274.47 181.172 274.373 180.996 273.135 180.225C272.215 179.653 272.168 179.562 272.557 179.099C273.308 178.209 272.646 177.811 271.704 178.587C270.968 179.193 270.748 179.203 270.461 178.644C270.27 178.271 270.235 177.644 270.383 177.251C270.782 176.191 270.471 175.916 269.636 176.591C269.205 176.939 268.564 177.063 268.093 176.888C267.126 176.529 266.517 175.502 267.185 175.357C267.448 175.3 267.514 175.242 267.332 175.229C267.15 175.215 266.792 174.797 266.537 174.299C266.19 173.624 265.768 173.428 264.869 173.528C264.207 173.601 263.589 173.512 263.496 173.33C263.403 173.148 263.1 173.116 262.823 173.258C262.075 173.641 261.953 173.062 262.602 172.207C263.13 171.514 262.975 170.682 262.361 170.91C261.142 171.364 259.996 171.296 259.924 170.767C259.878 170.432 260.051 170.05 260.308 169.918C260.888 169.621 260.561 168.868 259.974 169.149C259.427 169.411 257.4 168.29 257.423 167.739C257.45 167.091 256.343 167.328 256.156 168.01C256.034 168.454 255.934 168.505 255.78 168.205C255.665 167.98 255.722 167.632 255.908 167.432C256.445 166.853 254.566 165.456 253.788 165.855C252.789 166.368 251.666 165.672 251.716 164.572C251.766 163.472 251.665 163.241 251.231 163.463C251.048 163.557 250.335 163.469 249.647 163.267C248.209 162.844 247.482 161.882 248.539 161.801C249.259 161.745 249.474 160.897 249.002 159.977C248.76 159.505 248.715 159.524 248.685 160.109C248.656 160.675 248.518 160.756 247.875 160.584C247.067 160.367 246.386 159.467 246.851 159.228C246.999 159.153 247.429 159.193 247.807 159.317C248.369 159.502 248.392 159.441 247.932 158.983C247.623 158.675 247.241 158.171 247.084 157.864C246.917 157.538 246.645 157.486 246.432 157.738C245.961 158.297 243.68 157.275 243.567 156.455C243.518 156.09 243.197 155.872 242.799 155.931C242.424 155.987 241.744 156.011 241.288 155.983C240.599 155.942 240.55 156.019 240.994 156.441C241.953 157.35 241.52 157.901 240.476 157.102C239.811 156.594 239.56 156.217 239.75 156.013C240.155 155.576 239.599 154.622 239.074 154.852C238.835 154.956 238.87 154.745 239.15 154.382L239.66 153.723L238.972 154.035C238.594 154.207 237.719 154.12 237.027 153.843C236.336 153.565 235.493 153.48 235.154 153.654C234.366 154.058 233.629 153.582 233.842 152.805C233.933 152.475 233.915 152.033 233.804 151.823C233.692 151.613 233.585 151.756 233.566 152.141C233.535 152.735 233.443 152.758 232.953 152.293C232.597 151.956 232.491 151.529 232.677 151.181C232.907 150.752 232.806 150.704 232.257 150.98C231.546 151.338 230.513 150.751 230.543 150.007C230.552 149.798 230.285 149.648 229.95 149.674C229.614 149.7 229.427 149.89 229.533 150.097C229.64 150.305 229.523 150.45 229.275 150.42C229.026 150.39 228.573 149.879 228.268 149.284C227.95 148.662 227.298 148.084 226.738 147.924C226.005 147.715 225.793 147.479 225.882 146.973C225.977 146.444 225.843 146.408 225.256 146.804C224.743 147.151 224.28 147.109 223.77 146.672C222.941 145.96 221.528 146.111 220.601 147.01C220.141 147.457 220.062 147.453 220.284 146.995C220.529 146.49 220.454 146.325 219.844 146.033C219.44 145.839 219.221 145.623 219.359 145.552C219.497 145.482 219.307 145.279 218.937 145.102C218.567 144.925 218.096 144.98 217.889 145.226C217.654 145.505 217.393 145.438 217.193 145.049C217.017 144.706 216.55 144.49 216.156 144.568C215.719 144.655 214.964 144.198 214.229 143.401C213.232 142.32 213.044 142.239 213.153 142.938C213.284 143.771 213.273 143.775 212.516 143.211C211.95 142.788 211.543 142.799 210.984 143.251C210.068 143.991 208.921 143.765 208.68 142.795C208.486 142.013 206.715 141.591 206.685 142.321C206.652 143.117 205.48 142.876 205.02 141.979C204.772 141.496 204.438 141.169 204.276 141.252C204.115 141.335 202.984 141.082 201.763 140.69C200.541 140.298 199.368 140.066 199.155 140.175C198.943 140.284 197.927 140.06 196.897 139.678C195.868 139.296 194.943 139.133 194.842 139.316C194.742 139.499 194.003 139.384 193.202 139.06C192.4 138.735 190.881 138.448 189.826 138.421C188.38 138.385 187.8 138.163 187.471 137.522C187.231 137.053 187.186 136.593 187.37 136.498C187.555 136.403 187.798 136.505 187.909 136.723C188.021 136.941 188.245 136.977 188.407 136.803C188.568 136.63 188.603 136.418 188.484 136.334C187.931 135.942 188.633 134.418 189.444 134.248C189.921 134.149 190.32 133.854 190.33 133.593C190.341 133.331 190.693 132.942 191.113 132.726C191.533 132.511 191.923 132.164 191.98 131.955C192.038 131.746 192.428 131.331 192.849 131.031C193.411 130.63 193.704 130.657 193.958 131.136C194.224 131.638 194.314 131.502 194.355 130.538C194.385 129.852 194.713 129.107 195.085 128.883C197.386 127.494 197.841 127.159 197.728 126.939C197.659 126.804 198.034 126.325 198.561 125.875C199.088 125.425 199.531 124.825 199.546 124.541C199.564 124.198 199.923 124.135 200.616 124.354C201.638 124.676 201.651 124.667 201.253 123.893C200.993 123.386 201.058 122.994 201.434 122.799C201.757 122.632 202.308 122.055 202.66 121.517C203.23 120.646 203.351 120.597 203.761 121.071C204.059 121.417 204.077 121.29 203.812 120.712C203.432 119.882 203.514 119.779 204.995 119.236C205.895 118.906 206.553 118.47 206.51 118.232C206.432 117.797 209.252 115.46 211.122 114.412C211.71 114.082 212.125 113.682 212.044 113.524C211.963 113.365 212.323 113.259 212.844 113.288C213.614 113.33 213.808 113.192 213.883 112.547C213.934 112.11 214.131 111.811 214.32 111.881C214.51 111.952 215.027 111.845 215.47 111.644C216.047 111.382 216.15 111.133 215.833 110.764C215.48 110.352 215.643 110.147 216.655 109.734C217.349 109.45 218.114 109.241 218.354 109.27C218.595 109.299 218.655 109.056 218.488 108.73C218.321 108.404 218.384 108.161 218.63 108.19C218.875 108.22 219.542 107.794 220.113 107.245C220.809 106.573 221.42 106.26 221.97 106.29C222.578 106.324 222.85 106.119 223.019 105.502C223.278 104.557 223.254 104.582 224.776 103.633C225.394 103.247 225.955 102.851 226.021 102.754C226.613 101.881 230.881 99.4405 231.317 99.7246C231.606 99.9131 231.979 99.6924 232.518 99.0158C232.948 98.4758 233.498 98.0576 233.74 98.0866C233.982 98.1157 234.142 97.9236 234.094 97.66C234.032 97.3131 234.494 97.0585 235.762 96.7414C237.014 96.4281 237.492 96.168 237.431 95.8328C237.381 95.5512 238.337 94.8337 239.816 94.0433C241.174 93.3171 242.465 92.4877 242.685 92.1997C242.905 91.9119 243.528 91.6386 244.07 91.5927C244.611 91.547 246.042 90.925 247.249 90.2108C248.457 89.4966 249.52 89.0586 249.611 89.2371C249.846 89.6949 251.313 89.3469 251.334 88.828C251.366 88.0406 252.606 87.7446 253.557 88.2976C254.306 88.733 254.433 88.7189 254.182 88.2289C253.903 87.685 254.234 87.4517 257.063 86.202C260.999 84.4635 261.53 84.373 262.034 85.3546C262.396 86.0609 262.443 86.056 262.537 85.3029C262.594 84.8463 263.101 84.0971 263.662 83.6379C264.577 82.89 264.697 82.8877 264.817 83.618C264.947 84.4096 264.954 84.4051 265.089 83.4678C265.226 82.5162 265.254 82.5034 267.051 82.5368C269.426 82.5815 271.323 82.1965 272.592 81.4124C273.22 81.0238 273.998 80.9082 274.613 81.1122C275.5 81.4062 275.659 81.3444 276.033 80.5595C276.405 79.7774 276.525 79.7275 277.081 80.1269C277.47 80.4065 277.876 80.3791 278.15 80.054C278.41 79.7449 278.584 79.7217 278.572 79.997C278.562 80.2543 278.741 80.3683 278.971 80.2504C279.2 80.1326 279.953 80.2157 280.642 80.4346C281.332 80.6537 281.682 80.683 281.419 80.499C281.08 80.2607 281.254 80.005 282.026 79.6094C282.621 79.304 283.064 79.2136 283.011 79.4086C282.902 79.804 284.015 80.4409 284.436 80.2248C284.584 80.1487 284.627 79.7621 284.53 79.3661C284.363 78.6802 284.372 78.6754 284.723 79.2675C284.929 79.6155 285.358 79.7517 285.699 79.5771C286.033 79.4055 286.798 79.4278 287.397 79.6266C288.005 79.828 288.669 79.7728 288.897 79.5021C289.122 79.2348 289.391 79.1808 289.494 79.3824C289.598 79.5836 290.113 79.6582 290.639 79.5479C291.191 79.4324 291.738 79.6138 291.932 79.9766C292.232 80.5388 292.269 80.5264 292.28 79.8598C292.294 79.0871 294.174 77.7618 294.462 78.3223C294.551 78.4971 294.983 78.5891 295.421 78.5273C295.859 78.4652 296.209 78.6124 296.199 78.8536C296.189 79.0949 296.334 79.2144 296.52 79.1188C296.706 79.0233 296.859 78.6033 296.859 78.1858C296.858 77.2319 297.906 77.2951 298.038 78.2571C298.091 78.642 298.182 78.782 298.241 78.5681C298.299 78.3543 298.697 78.273 299.124 78.3868C300.284 78.6969 302.138 78.5561 302.089 78.1619C302.065 77.9721 302.404 77.4924 302.842 77.0963C303.431 76.5629 303.708 76.5126 303.908 76.9022C304.056 77.1914 304.031 77.5869 303.851 77.781C303.601 78.0503 303.77 78.3547 304.566 79.0733C305.757 80.1491 305.83 80.1481 306.13 79.0502C306.423 77.9825 307.022 77.7056 307.142 78.5825C307.22 79.1523 307.376 79.1529 307.996 78.5854C308.611 78.0215 309.044 78.017 310.291 78.5615C311.136 78.93 311.925 79.0543 312.044 78.8375C312.164 78.6207 312.642 78.5844 313.108 78.7576C313.574 78.9302 314.325 78.9118 314.776 78.7162C315.228 78.5206 315.592 78.5049 315.585 78.6812C315.577 78.8577 315.903 78.9551 316.307 78.8979C316.729 78.8383 317.529 79.324 318.18 80.0345C319.073 81.0097 319.415 81.161 319.774 80.7421C320.175 80.2736 320.213 80.3136 320.085 81.0761C319.904 82.1511 320.489 82.4439 320.858 81.4636C321.186 80.5946 322.254 80.4358 322.645 81.1978C322.831 81.5599 323.077 81.5699 323.366 81.2273C323.684 80.8492 323.797 80.8782 323.779 81.333C323.762 81.7498 323.837 81.8053 324.006 81.4989C324.42 80.7471 325.227 81.0401 325.076 81.8874C324.972 82.4736 325.127 82.6594 325.845 82.8056C326.621 82.9642 326.783 82.8682 327.035 82.1061C327.196 81.6206 327.481 81.2802 327.669 81.3503C327.858 81.4203 327.844 81.9536 327.639 82.5362C327.18 83.8403 327.258 84.0134 328.217 83.8231C328.633 83.7407 328.854 83.5211 328.709 83.3353C328.563 83.1498 328.598 82.8212 328.786 82.6054C328.974 82.3895 329.177 82.3638 329.236 82.548C329.576 83.5995 329.946 83.8341 330.2 83.1608C330.41 82.6024 330.8 82.6052 332.269 83.1744C333.565 83.6775 333.976 83.9976 333.719 84.303C333.154 84.9738 333.722 85.6366 334.354 85.0451C334.923 84.5123 335.715 84.7221 337.051 85.7597C337.454 86.0726 338.202 86.2889 338.714 86.2402C339.252 86.1896 339.495 86.0546 339.291 85.9202C339.096 85.7921 339.284 85.619 339.708 85.535C340.131 85.4511 340.562 85.546 340.664 85.7457C340.767 85.9459 341.144 85.841 341.502 85.5128C341.86 85.1846 342.432 84.9496 342.773 84.9906C343.292 85.0534 343.402 85.2922 343.456 86.473C343.521 87.9035 343.863 88.1501 344.18 86.9941C344.428 86.088 345.074 86.4513 344.905 87.4014C344.828 87.8354 344.944 88.2495 345.163 88.322C345.382 88.3944 345.526 88.2332 345.484 87.9638C345.379 87.2954 346.845 87.0508 347.169 87.6831C347.318 87.9722 347.772 88.0144 348.226 87.7811C348.854 87.4589 349.124 87.5679 349.497 88.2951C349.757 88.8027 349.883 89.3765 349.777 89.5701C349.67 89.7636 349.922 90.0477 350.335 90.2012C351.341 90.5746 351.541 90.4202 351.118 89.5967C350.821 89.0164 350.954 88.8613 351.982 88.594C353.181 88.2826 353.975 88.8827 353.563 89.7891C353.325 90.3132 354.576 90.6214 354.858 90.1085C354.955 89.9335 355.205 90.125 355.415 90.5341C355.625 90.9431 356.443 91.4123 357.233 91.5769C358.023 91.7414 358.704 92.1277 358.747 92.4348C358.796 92.7974 359.11 92.8464 359.641 92.5742C360.218 92.278 360.484 92.3394 360.545 92.7827C360.675 93.7335 361.447 94.1162 361.729 93.3695C361.959 92.7587 363.17 92.4284 363.416 92.9093C363.488 93.0489 363.467 93.4542 363.369 93.8097C363.242 94.2752 363.299 94.4012 363.575 94.2597C363.786 94.1516 363.966 93.868 363.976 93.6296C363.986 93.3908 364.541 93.3637 365.21 93.5687C366.102 93.8423 366.397 94.114 366.313 94.5856C366.228 95.059 366.342 95.1553 366.743 94.9497C367.042 94.7961 367.405 94.9003 367.549 95.181C367.693 95.4618 368.086 95.6703 368.423 95.6445C368.759 95.6182 369.206 95.932 369.417 96.3417C369.627 96.7512 370.016 96.9744 370.283 96.8377C370.833 96.5555 372.605 97.4639 372.583 98.0163C372.574 98.2159 372.774 98.4041 373.027 98.4347C373.279 98.4649 373.655 98.8187 373.861 99.2204C374.108 99.7024 374.645 99.9058 375.439 99.8178C376.301 99.7222 376.764 99.9211 377.071 100.52C377.307 100.98 377.832 101.445 378.237 101.554C378.643 101.663 379.128 102.05 379.314 102.414C379.791 103.343 381.152 103.763 382.104 103.274C382.655 102.991 382.935 103.052 382.991 103.465C383.037 103.797 383.463 104.152 383.939 104.252C384.414 104.353 384.979 104.656 385.194 104.926C385.409 105.194 385.79 105.439 386.039 105.469C386.289 105.5 386.542 105.679 386.602 105.868C386.662 106.058 386.903 106.188 387.139 106.158C387.374 106.129 387.438 105.853 387.28 105.546C387.123 105.239 387.109 104.778 387.25 104.521C387.414 104.224 387.539 104.277 387.594 104.664C387.73 105.618 388.205 107.389 388.158 106.766C388.081 105.767 388.673 105.892 389.39 107.025C389.901 107.833 390.454 108.164 391.417 108.239C392.146 108.296 392.819 108.214 392.914 108.057C393.008 107.9 393.175 107.947 393.284 108.16C393.394 108.373 393.333 108.626 393.148 108.72C392.963 108.815 392.944 109.149 393.105 109.463C393.37 109.98 393.441 109.943 393.851 109.08C394.615 107.473 395.41 107.683 394.948 109.371C394.743 110.119 394.818 110.181 395.704 109.995C396.372 109.856 396.657 109.973 396.594 110.362C396.49 111.006 397.748 112.379 398.22 112.137C398.385 112.052 398.69 112.416 398.898 112.945C399.178 113.659 399.61 113.94 400.575 114.036C401.487 114.126 401.919 114.389 402.021 114.917C402.118 115.418 402.34 115.579 402.687 115.401C402.974 115.254 403.955 115.593 404.868 116.155C405.89 116.785 406.536 116.972 406.549 116.643C406.564 116.285 406.746 116.275 407.101 116.612C407.393 116.889 407.623 117.332 407.612 117.596C407.582 118.33 409.857 120.52 410.375 120.254C410.694 120.091 410.909 120.328 411.091 121.044C411.317 121.939 411.46 122.012 412.216 121.625C412.911 121.268 413.017 120.917 412.754 119.844L412.425 118.508L413.417 119.504C413.962 120.052 414.546 120.43 414.714 120.343C414.882 120.257 415.621 121.127 416.356 122.276C417.971 124.798 419.811 126.525 420.504 126.17C420.784 126.026 421.343 126.156 421.748 126.457C422.247 126.829 422.371 127.064 422.136 127.184C421.563 127.478 422.82 129.484 423.806 129.85C424.31 130.037 424.703 130.272 424.679 130.373C424.54 130.949 425.306 131.05 425.862 130.528C426.367 130.054 426.376 129.771 425.901 129.268C425.334 128.667 425.352 128.643 426.147 128.938C426.618 129.113 427.359 129.206 427.793 129.145C428.389 129.061 428.642 129.269 428.826 129.996C429.008 130.715 429.31 130.972 430.019 131.011C430.722 131.05 431.03 131.309 431.208 132.009C431.39 132.728 431.737 132.998 432.651 133.133C433.453 133.252 433.77 133.467 433.599 133.776C433.424 134.094 433.795 134.409 434.773 134.772C435.942 135.206 436.332 135.591 436.905 136.882C437.291 137.751 438.133 138.921 438.775 139.483C439.463 140.085 439.808 140.227 439.614 139.83C439.025 138.624 440.778 138.465 441.835 139.629C442.412 140.264 443.023 140.555 443.474 140.409C443.869 140.281 444.379 140.37 444.608 140.606C444.859 140.868 444.822 141.013 444.512 140.975C444.231 140.942 444.091 141.089 444.201 141.302C444.31 141.515 444.551 141.613 444.736 141.518C445.147 141.307 445.693 142.278 445.375 142.656C445.25 142.805 445.255 143.393 445.387 143.962C445.606 144.904 445.64 144.917 445.772 144.111C445.994 142.759 447.253 142.294 447.801 143.361C448.047 143.841 448.562 144.317 448.946 144.42C449.381 144.537 449.817 145.077 450.102 145.851C450.468 146.845 450.826 147.164 451.882 147.435L453.203 147.775L452.485 148.622L451.767 149.469L452.823 149.861C454.085 150.33 454.309 150.263 453.934 149.532C453.479 148.646 454.269 148.561 455.149 149.401C455.594 149.826 456.356 150.945 456.841 151.889C457.891 153.93 459.662 156.029 460.731 156.499C461.153 156.685 461.465 157.046 461.425 157.301C461.384 157.556 461.456 157.467 461.584 157.104C461.769 156.583 462.192 156.583 463.59 157.102C464.564 157.463 465.541 158.11 465.761 158.539C465.999 159.002 466.464 159.258 466.906 159.171C467.316 159.089 468.336 159.588 469.173 160.279C470.01 160.97 470.816 161.497 470.966 161.45C472.838 160.853 473.575 160.366 474.613 159.039C475.285 158.179 476.067 157.416 476.352 157.343C476.637 157.27 476.973 156.727 477.1 156.135C477.409 154.692 478.048 153.944 479.973 152.773C482.945 150.967 483.492 150.552 483.942 149.766C484.363 149.029 484.337 149.01 483.48 149.436C482.98 149.685 482.393 149.771 482.175 149.628C481.958 149.485 482.01 149.25 482.293 149.105C482.611 148.942 482.625 148.671 482.33 148.391C482.069 148.143 482.022 147.855 482.226 147.75C482.431 147.645 482.683 147.724 482.786 147.926C482.889 148.127 483.125 148.215 483.31 148.12C483.494 148.026 483.513 147.691 483.352 147.377C483.191 147.063 483.276 146.831 483.541 146.863C483.806 146.895 484.078 146.508 484.145 146.002C484.213 145.496 484.338 145.206 484.422 145.357C484.507 145.507 485.01 145.082 485.54 144.411C486.07 143.74 486.97 142.984 487.54 142.731C489.078 142.049 489.277 141.851 488.526 141.753C488.028 141.688 488.13 141.555 488.906 141.254C489.488 141.028 490.091 140.533 490.246 140.154C490.685 139.083 491.415 138.403 491.831 138.677C492.414 139.06 492.874 138.665 492.559 138.052C492.404 137.749 492.487 137.394 492.743 137.263C492.999 137.131 493.066 136.796 492.892 136.519C492.717 136.242 492.714 135.916 492.885 135.795C493.056 135.674 493.196 135.278 493.196 134.914C493.196 134.163 495.074 133.037 495.369 133.612C495.474 133.818 495.789 133.544 496.067 133.004C496.346 132.463 496.747 131.992 496.958 131.957C497.17 131.922 497.448 131.319 497.577 130.616C497.714 129.872 497.922 129.543 498.077 129.827C498.272 130.188 498.549 129.957 499.138 128.938C499.601 128.138 500.703 127.084 501.769 126.423C502.778 125.798 503.645 125.247 503.695 125.201C503.745 125.154 503.502 124.815 503.154 124.447C502.618 123.879 502.645 123.753 503.335 123.616C503.782 123.528 504.156 123.262 504.165 123.026C504.175 122.791 503.579 122.908 502.84 123.286C502.102 123.665 501.336 123.868 501.138 123.738C500.762 123.491 502.663 121.819 504.271 120.983C504.924 120.644 505.071 120.376 504.764 120.085C504.524 119.857 504.268 119.561 504.196 119.428C504.124 119.295 504.05 119.481 504.031 119.841C504.013 120.202 503.768 120.469 503.488 120.435C502.502 120.317 503.025 119.609 504.523 119.036C505.643 118.608 505.855 118.425 505.337 118.334C504.764 118.233 504.777 118.139 505.411 117.808C505.841 117.584 506.174 117.614 506.163 117.878C506.136 118.555 506.586 118.206 507.224 117.054C507.527 116.508 507.573 116.266 507.327 116.515C507.08 116.765 506.28 116.878 505.548 116.768C504.817 116.657 504.392 116.476 504.605 116.366C504.864 116.231 504.542 115.332 503.623 113.625L502.255 111.086L503.37 110.514C504.333 110.021 504.412 109.839 503.954 109.174C503.613 108.679 503.132 108.501 502.608 108.674C501.287 109.112 501.113 107.725 502.368 106.761C503.089 106.208 503.072 106.196 502.041 106.535ZM497.159 100.737C496.974 100.832 496.733 100.735 496.624 100.521C496.515 100.308 496.628 100.158 496.877 100.188C497.125 100.218 497.366 100.315 497.411 100.404C497.457 100.493 497.343 100.643 497.159 100.737ZM491.841 96.9834C491.657 97.0781 491.421 96.9906 491.318 96.789C491.214 96.5874 491.281 96.345 491.465 96.2503C491.65 96.1557 491.886 96.2431 491.989 96.4447C492.093 96.6463 492.026 96.8887 491.841 96.9834ZM501.298 126.161C501.177 126.381 500.988 126.385 500.879 126.172C500.77 125.958 500.831 125.706 501.016 125.612C501.2 125.517 501.388 125.512 501.434 125.601C501.48 125.69 501.418 125.942 501.298 126.161ZM481.405 149.309C481.293 149.513 481.02 149.561 480.799 149.416C480.578 149.27 480.633 149.031 480.92 148.883C481.51 148.58 481.709 148.756 481.405 149.309ZM443.859 80.3924C443.694 80.4769 443.337 80.1136 443.066 79.5851C442.658 78.7897 442.695 78.6567 443.281 78.814C444.001 79.0072 444.405 80.1119 443.859 80.3924ZM446.669 144.461C446.421 144.431 446.307 144.582 446.417 144.795C446.526 145.008 446.767 145.106 446.951 145.011C447.136 144.916 447.25 144.766 447.204 144.677C447.158 144.588 446.918 144.491 446.669 144.461ZM435.448 135.547C435.487 135.861 435.661 136.171 435.835 136.236C436.009 136.3 435.977 136.044 435.764 135.665C435.529 135.246 435.405 135.2 435.448 135.547ZM419.949 124.603C419.764 124.697 419.528 124.61 419.425 124.408C419.322 124.207 419.388 123.964 419.573 123.87C419.757 123.775 419.993 123.862 420.096 124.064C420.2 124.266 420.133 124.508 419.949 124.603ZM420.909 127.351C420.714 127.451 420.732 127.65 420.949 127.793C421.167 127.936 421.411 128.019 421.493 127.977C421.574 127.935 421.556 127.736 421.453 127.535C421.349 127.333 421.105 127.25 420.909 127.351ZM370.752 97.2916C370.631 97.5109 370.617 97.8552 370.72 98.0568C370.824 98.2584 371.007 98.244 371.128 98.0247C371.248 97.8054 371.263 97.4611 371.159 97.2595C371.056 97.0579 370.872 97.0723 370.752 97.2916ZM334.15 82.9644C333.966 83.0591 333.725 82.9617 333.615 82.7484C333.506 82.5351 333.62 82.3847 333.868 82.4146C334.117 82.4446 334.357 82.5416 334.403 82.6306C334.449 82.7197 334.335 82.8697 334.15 82.9644ZM308.64 78.6888C308.391 78.6589 308.278 78.8093 308.387 79.0226C308.497 79.2359 308.737 79.3333 308.922 79.2386C309.107 79.1439 309.22 78.9939 309.175 78.9048C309.129 78.8157 308.888 78.7187 308.64 78.6888ZM298.432 210.8C298.201 210.772 298.003 210.965 297.992 211.23C297.981 211.494 298.208 211.589 298.495 211.442C299.085 211.139 299.059 210.875 298.432 210.8ZM291.539 203.204C291.418 203.424 291.23 203.428 291.121 203.215C291.011 203.002 291.072 202.749 291.257 202.655C291.442 202.56 291.63 202.555 291.676 202.644C291.721 202.733 291.66 202.985 291.539 203.204ZM296.109 212.467C295.899 213.233 295.275 213.794 295.073 213.399C294.771 212.81 294.996 211.385 295.425 211.165C296.051 210.844 296.382 211.473 296.109 212.467ZM301.907 225.896C301.388 225.568 301.347 225.606 301.624 226.157C301.802 226.511 302.099 226.723 302.283 226.629C302.693 226.419 302.671 226.377 301.907 225.896ZM302.615 232.786C302.013 232.562 301.695 232.92 301.989 233.493C302.144 233.795 302.497 233.926 302.774 233.784C303.299 233.516 303.218 233.009 302.615 232.786ZM304.461 238.931C304.32 238.999 303.924 239.017 303.579 238.972C302.783 238.867 302.794 237.894 303.593 237.833C304.201 237.786 304.927 238.705 304.461 238.931ZM306.885 249.305C306.503 249.523 306.468 249.651 306.796 249.631C307.092 249.612 307.375 249.451 307.424 249.272C307.473 249.093 307.231 249.108 306.885 249.305ZM307.936 252.549C307.206 251.878 306.235 252.023 306.203 252.807C306.193 253.037 306.576 253.154 307.052 253.065C307.726 252.941 307.853 253.03 307.624 253.468C307.278 254.126 307.989 254.721 308.691 254.361C309.234 254.082 309.007 253.536 307.936 252.549ZM263.448 171.635C263.251 171.847 263.135 172.272 263.19 172.578C263.247 172.896 263.443 172.969 263.648 172.748C263.845 172.535 263.961 172.111 263.906 171.805C263.849 171.487 263.653 171.415 263.448 171.635ZM250.764 162.146C250.395 162.175 250.26 162.402 250.423 162.72C250.586 163.038 250.85 163.061 251.088 162.778C251.306 162.52 251.459 162.261 251.43 162.204C251.4 162.146 251.101 162.12 250.764 162.146ZM243.268 157.362C243.196 157.399 242.915 157.22 242.644 156.964C242.363 156.696 242.344 156.52 242.599 156.551C243.029 156.603 243.54 157.223 243.268 157.362ZM157.026 52.0615C156.962 52.0942 156.849 52.4649 156.774 52.8852C156.696 53.3258 156.782 53.5753 156.979 53.4744C157.166 53.3783 157.28 53.0076 157.231 52.6507C157.182 52.2939 157.09 52.0288 157.026 52.0615ZM244.849 233.027C244.474 232.887 244.366 232.727 244.576 232.619C245.024 232.389 245.644 232.619 245.545 232.978C245.503 233.131 245.19 233.153 244.849 233.027ZM247.976 238.204C248.311 238.457 248.758 239.097 248.968 239.626C249.179 240.154 249.647 241.209 250.007 241.971C250.504 243.02 250.538 243.812 250.146 245.24C249.788 246.551 249.801 247.458 250.19 248.217C250.535 248.891 250.594 249.634 250.342 250.163C250.119 250.633 250.101 251.079 250.303 251.154C250.504 251.229 250.385 251.556 250.037 251.881C249.69 252.207 249.48 252.618 249.571 252.796C249.662 252.974 249.481 254.109 249.169 255.319C248.857 256.528 248.709 257.727 248.839 257.982C249.372 259.02 247.951 260.687 245.2 262.248C243.618 263.146 242.415 263.64 242.31 263.434C242.211 263.241 241.544 263.247 240.827 263.446C240.111 263.646 239.38 263.714 239.203 263.597C239.026 263.481 238.078 263.769 237.098 264.237C234.498 265.479 233.62 265.814 233.115 265.758C232.868 265.731 231.39 265.989 229.831 266.333C227.906 266.757 226.602 266.793 225.766 266.446C224.886 266.082 224.32 266.11 223.779 266.547C223.363 266.884 222.957 267.029 222.875 266.871C222.794 266.713 222.102 266.664 221.336 266.763C220.571 266.862 219.824 266.708 219.677 266.421C219.53 266.134 219.109 266.054 218.741 266.242C218.373 266.431 217.715 266.352 217.277 266.067C216.84 265.782 216.242 265.673 215.947 265.824C215.653 265.975 214.755 265.81 213.951 265.459C213.147 265.107 212.347 264.893 212.172 264.983C211.608 265.271 208.403 264.59 207.403 263.968C206.869 263.636 205.839 263.222 205.113 263.048C204.37 262.869 203.608 262.368 203.368 261.9C203.1 261.378 202.565 261.074 201.925 261.082C201.366 261.089 200.613 260.764 200.253 260.36C198.953 258.905 195.299 256.134 194.736 256.177C194.093 256.227 187.721 251.233 187.246 250.307C186.868 249.57 184.565 247.662 184.249 247.824C183.848 248.029 182.361 246.385 180.39 243.553C178.173 240.369 176.178 237.669 174.684 235.832C171.987 232.516 168.757 226.638 168.928 225.358C168.964 225.085 168.796 223.817 168.553 222.541C168.311 221.265 168.244 219.777 168.405 219.233C168.566 218.689 168.528 218.133 168.319 217.996C168.111 217.858 167.49 216.419 166.939 214.796C166.212 212.655 166.075 211.775 166.438 211.589C166.834 211.386 166.725 211.002 165.923 209.77C165.324 208.848 165.044 208.137 165.24 208.036C165.424 207.942 165.326 207.576 165.022 207.222C164.613 206.746 164.636 206.494 165.111 206.251C165.462 206.071 165.668 205.705 165.566 205.439C165.465 205.172 165.333 204.771 165.273 204.548C165.212 204.324 165.074 203.926 164.966 203.663C164.858 203.4 164.963 203.086 165.199 202.965C165.66 202.728 166.143 200.844 165.849 200.429C165.367 199.748 165.391 199.268 165.948 198.512C166.407 197.89 166.649 197.776 166.93 198.05C167.17 198.284 167.417 197.961 167.624 197.14L167.946 195.866L168.616 196.515C169.059 196.945 169.573 197.017 170.135 196.729C170.664 196.458 171.091 196.499 171.265 196.839C171.586 197.464 173.308 198.342 173.76 198.111C173.926 198.025 173.76 197.811 173.392 197.635C172.894 197.396 172.717 197.069 172.704 196.367C172.682 195.136 173.018 194.979 173.29 196.094C173.486 196.899 173.599 196.9 174.726 196.096C175.844 195.298 176.697 195.353 175.936 196.173C175.515 196.626 176.415 197.211 177.04 196.891C177.306 196.754 177.355 196.313 177.148 195.91C176.732 195.099 177.14 194.68 177.874 195.162C178.133 195.333 178.2 195.629 178.022 195.82C177.544 196.336 178.32 196.697 179.074 196.31C179.433 196.127 179.599 195.729 179.444 195.426C179.288 195.124 179.37 194.77 179.624 194.639C180.237 194.325 181.43 194.919 181.552 195.599C181.605 195.896 182.054 196.155 182.548 196.174C183.136 196.196 183.568 196.518 183.796 197.103C184.059 197.778 184.202 197.854 184.379 197.412C184.793 196.374 186.315 196.039 186.886 196.86C187.172 197.271 187.496 197.441 187.608 197.239C187.719 197.037 188.161 196.905 188.592 196.944C189.293 197.01 189.296 197.059 188.625 197.416C187.773 197.869 188.038 198.729 189.119 199.019C189.717 199.18 189.828 199.006 189.75 198.023C189.668 196.979 189.808 196.789 190.882 196.49C191.668 196.271 192.034 196.003 191.9 195.743C191.786 195.521 191.866 195.359 192.079 195.385C192.291 195.41 192.802 196.413 193.217 197.62C194.044 200.023 195.192 201.269 195.855 200.482C196.064 200.234 196.671 200.156 197.206 200.308C198.108 200.565 198.163 200.653 197.969 201.525C197.777 202.395 197.803 202.444 198.317 202.181C198.622 202.024 199.002 202.148 199.16 202.457C199.538 203.195 200.618 203.092 200.92 202.29C201.052 201.942 201.314 201.714 201.504 201.784C201.693 201.855 201.749 201.72 201.629 201.485C201.508 201.25 201.203 201.163 200.952 201.292C200.14 201.708 199.646 199.895 200.419 199.334C201.133 198.816 201.741 199.277 201.164 199.899C200.626 200.478 201.808 200.952 202.404 200.395C203.178 199.671 204.985 200.786 204.793 201.87C204.718 202.289 204.799 202.583 204.972 202.524C205.145 202.465 205.449 202.361 205.647 202.293C206.776 201.909 207.694 202.419 208.56 203.911C209.07 204.791 209.657 205.417 209.889 205.33C210.657 205.043 210.711 205.079 210.726 205.892C210.736 206.451 211.039 206.906 211.702 207.359C212.636 207.997 212.646 207.994 212.072 207.259C211.582 206.633 211.611 206.483 212.238 206.395C212.654 206.336 212.912 206.125 212.81 205.927C212.708 205.728 212.401 205.595 212.127 205.628C211.853 205.663 211.988 205.401 212.426 205.046C213.022 204.563 213.243 204.553 213.305 205.004C213.35 205.336 214.081 206.491 214.93 207.571C216.222 209.215 216.588 209.476 217.185 209.176C217.661 208.937 217.808 208.985 217.629 209.319C217.286 209.962 219.156 211.862 219.804 211.529C220.048 211.404 220.455 211.738 220.742 212.298C221.617 214.003 221.658 212.124 220.793 209.98C220.729 209.822 220.871 209.593 221.108 209.471C221.665 209.186 223.663 210.555 224.191 211.584C224.537 212.258 224.428 212.445 223.476 212.806C222.802 213.061 222.39 213.444 222.447 213.762C222.508 214.102 222.884 214.119 223.496 213.809C224.741 213.18 225.695 213.327 225.81 214.165C225.875 214.636 226.02 214.695 226.299 214.364C226.517 214.105 226.501 213.708 226.262 213.481C225.607 212.861 226.278 212.708 227.772 213.138C228.896 213.461 229.161 213.723 229.47 214.814C229.86 216.193 229.812 216.269 228.526 216.315C227.782 216.341 227.756 216.308 228.287 216.007C228.636 215.809 228.699 215.55 228.441 215.38C228.199 215.222 228.108 214.898 228.237 214.663C228.379 214.406 228.253 214.089 227.925 213.873C227.46 213.567 227.345 213.629 227.166 214.282C226.934 215.13 227.914 217.168 228.523 217.102C229.802 216.962 230.085 217.224 230.58 219.004C230.854 219.988 231.246 220.856 231.453 220.932C232.106 221.175 233.104 219.947 232.624 219.491C232.38 219.26 232.331 218.993 232.515 218.898C233.3 218.495 233.863 219.75 233.464 221.014L233.05 222.327L233.906 221.888C234.991 221.332 235.348 221.964 234.509 222.954C234.018 223.533 234.01 223.885 234.474 224.465C235.801 226.128 236.002 226.177 235.883 224.81C235.783 223.671 235.828 223.595 236.194 224.276C236.429 224.713 236.522 225.25 236.401 225.47C236.098 226.021 236.89 227.461 237.653 227.744C237.998 227.873 238.618 227.805 239.029 227.594C239.532 227.336 240.142 227.5 240.897 228.096C242.316 229.216 242.694 229.931 241.901 229.992C241.443 230.027 241.427 230.308 241.836 231.105C242.136 231.691 242.659 232.273 242.996 232.398C243.35 232.529 244.017 233.498 244.572 234.686C245.418 236.497 245.589 236.681 245.986 236.21C246.27 235.872 246.43 235.859 246.417 236.173C246.406 236.448 246.75 236.768 247.183 236.884C247.67 237.015 247.855 237.218 247.668 237.419C247.477 237.626 247.589 237.911 247.976 238.204ZM245.426 235.298C245.253 235.234 245.078 234.924 245.04 234.61C244.997 234.262 245.121 234.308 245.356 234.727C245.568 235.106 245.6 235.363 245.426 235.298ZM238.402 225.444C238.119 225.461 238.265 225.281 238.727 225.044C239.188 224.808 239.42 224.794 239.241 225.014C239.062 225.234 238.685 225.428 238.402 225.444ZM235.663 223.302C235.479 223.397 235.336 223.261 235.347 223.001C235.358 222.741 235.517 222.451 235.702 222.356C235.887 222.261 236.029 222.397 236.018 222.657C236.007 222.917 235.848 223.207 235.663 223.302ZM224.31 214.318C224.048 214.728 224.011 215.182 224.228 215.324C224.483 215.492 224.713 215.345 224.876 214.912C225.259 213.895 224.852 213.468 224.31 214.318ZM222.476 211.547C222.292 211.642 222.231 211.894 222.34 212.108C222.449 212.321 222.638 212.316 222.758 212.097C222.879 211.878 222.941 211.626 222.895 211.537C222.849 211.448 222.661 211.453 222.476 211.547ZM145.413 63.81C145.291 64.0331 145.356 64.3243 145.559 64.4574C146.107 64.8182 146.26 64.6203 145.929 63.9763C145.768 63.6622 145.536 63.5873 145.413 63.81ZM149.688 90.9326C149.458 91.2798 149.035 91.5877 148.747 91.6171C148.46 91.6462 147.608 92.3264 146.856 93.1283C146.103 93.9306 145.316 94.566 145.107 94.5407C144.898 94.5156 144.513 95.0183 144.253 95.6581C143.992 96.2975 143.588 96.9187 143.354 97.0383C143.121 97.158 142.805 97.6377 142.651 98.1045C142.388 98.9067 141.193 99.3704 140.893 98.7862C140.816 98.6374 140.901 98.0674 141.081 97.5192C141.321 96.7912 141.756 96.4162 142.698 96.1262C143.687 95.8216 143.923 95.6025 143.71 95.1862C143.556 94.8878 143.633 94.5719 143.879 94.4842C144.58 94.235 145.583 93.0537 145.399 92.6945C145.308 92.5167 145.712 92.1252 146.297 91.8249C146.883 91.5246 147.482 90.9125 147.629 90.4649C147.939 89.5201 149.473 89.0666 149.853 89.8069C149.992 90.0789 149.919 90.5853 149.688 90.9326ZM206.228 202.874C205.502 203.325 206.369 205.285 207.264 205.215C207.665 205.184 207.7 205.025 207.374 204.716C207.111 204.466 207.042 204.187 207.22 204.095C207.399 204.003 207.382 203.609 207.181 203.218C206.944 202.755 206.611 202.635 206.228 202.874ZM204.699 203.884C204.735 204.184 204.946 204.596 205.169 204.8C205.391 205.005 205.361 204.759 205.103 204.255C204.844 203.751 204.662 203.584 204.699 203.884ZM195.472 198.547C195.293 198.639 195.107 198.422 195.058 198.065C195.009 197.708 195.029 197.386 195.101 197.349C195.174 197.311 195.36 197.528 195.515 197.831C195.67 198.133 195.651 198.456 195.472 198.547ZM139.716 101.451C139.413 101.768 139.243 102.182 139.339 102.37C139.436 102.558 139.22 102.863 138.86 103.048C138.243 103.364 138.222 103.308 138.512 102.069C138.815 100.773 139.75 99.8645 140.093 100.532C140.189 100.72 140.02 101.134 139.716 101.451ZM184.35 195.759C183.841 195.599 183.257 195.554 183.052 195.659C182.847 195.764 182.501 195.733 182.283 195.59C182.052 195.438 182.327 195.105 182.95 194.785C183.757 194.371 184.034 194.396 184.102 194.889C184.151 195.246 184.337 195.463 184.516 195.371C184.695 195.279 184.939 195.395 185.058 195.628C185.188 195.881 184.903 195.934 184.35 195.759ZM135.746 107.284C135.096 107.643 134.534 107.877 134.496 107.803C134.352 107.523 135.999 104.515 136.413 104.303C136.756 104.127 136.856 104.348 136.888 105.356C136.92 106.373 136.689 106.763 135.746 107.284ZM132.702 111.711C132.224 112.653 132.205 112.653 132.188 111.721C132.179 111.19 132.362 110.528 132.595 110.251C133.217 109.512 133.292 110.547 132.702 111.711ZM130.924 114.063C130.739 114.158 130.551 114.163 130.505 114.074C130.46 113.985 130.521 113.733 130.642 113.513C130.762 113.294 130.951 113.29 131.06 113.503C131.17 113.716 131.108 113.968 130.924 114.063ZM116.247 98.6747C115.998 98.6448 115.885 98.7952 115.994 99.0085C116.104 99.2219 116.344 99.3192 116.529 99.2245C116.714 99.1298 116.827 98.9798 116.782 98.8907C116.736 98.8017 116.495 98.7047 116.247 98.6747ZM123.971 223.651C123.786 223.745 123.551 223.658 123.447 223.456C123.344 223.255 123.41 223.012 123.595 222.918C123.779 222.823 124.015 222.91 124.119 223.112C124.222 223.314 124.155 223.556 123.971 223.651ZM105.551 228.238C105.43 228.458 105.369 228.71 105.414 228.799C105.46 228.888 105.648 228.883 105.833 228.788C106.018 228.693 106.079 228.441 105.969 228.228C105.86 228.014 105.672 228.019 105.551 228.238ZM87.6514 209.873C87.4668 209.968 87.2312 209.88 87.1278 209.679C87.0244 209.477 87.0908 209.235 87.2754 209.14C87.46 209.045 87.6956 209.133 87.799 209.335C87.9024 209.536 87.836 209.779 87.6514 209.873ZM86.0137 211.639C85.8291 211.734 85.5934 211.646 85.49 211.445C85.3866 211.243 85.453 211.001 85.6376 210.906C85.8222 210.812 86.0579 210.899 86.1613 211.101C86.2647 211.302 86.1983 211.545 86.0137 211.639ZM77.1742 271.267C76.9896 271.362 76.9655 271.687 77.1206 271.989C77.2757 272.292 77.5537 272.462 77.7382 272.367C77.9228 272.272 77.947 271.947 77.7919 271.645C77.6367 271.343 77.3588 271.173 77.1742 271.267ZM38.2248 240.781C37.1031 241.847 36.6413 243.067 37.2709 243.301C37.4718 243.375 37.3519 243.703 37.004 244.028C36.6567 244.353 36.4469 244.765 36.5383 244.943C36.6295 245.121 36.3358 245.456 35.8851 245.687C34.9087 246.188 34.7667 247.125 35.6492 247.241C36.1172 247.303 36.0903 247.421 35.5435 247.707C35.1406 247.918 34.8017 248.317 34.7903 248.595C34.779 248.873 34.5335 249.118 34.2452 249.141C33.8966 249.168 33.8948 249.384 34.2394 249.786C34.6236 250.234 34.5615 250.57 33.9997 251.084C33.583 251.466 33.2033 252.16 33.1567 252.626C33.0409 253.778 31.6094 255.876 30.9018 255.931C30.0051 256 29.9099 255.386 30.5905 253.924C31.1057 252.819 31.3157 252.644 31.7742 252.939C32.1972 253.21 32.2361 253.108 31.9355 252.512C31.7126 252.071 31.7881 251.243 32.1077 250.623C32.4203 250.016 32.8081 249.006 32.9696 248.378C33.1311 247.75 33.5488 246.863 33.898 246.408C34.2471 245.952 34.9418 244.617 35.4411 243.441C36.8287 240.174 39.0158 237.665 39.2141 239.113C39.2627 239.467 38.8173 240.218 38.2248 240.781ZM72.3182 304.315C72.2367 304.356 71.9923 304.273 71.7748 304.13C71.5573 303.987 71.5395 303.788 71.7348 303.688C71.9301 303.588 72.1748 303.671 72.2782 303.872C72.3816 304.074 72.3998 304.273 72.3182 304.315ZM74.318 329.061C74.1261 328.99 73.813 329.011 73.622 329.109C73.4119 329.217 73.5193 329.378 73.8948 329.517C74.2357 329.644 74.5488 329.622 74.5908 329.469C74.6327 329.316 74.51 329.132 74.318 329.061ZM78.3158 344.638C77.945 344.381 77.6507 343.959 77.6611 343.701C77.6716 343.443 77.5367 343.305 77.3608 343.396C76.9198 343.622 77.1185 344.762 77.694 345.308C77.9555 345.556 78.3799 345.651 78.637 345.519C79.1854 345.237 79.1875 345.243 78.3158 344.638ZM30.0567 259.753C29.3253 260.565 29.0528 261.116 28.413 263.081C28.107 264.02 26.8704 265.766 26.7194 265.472C26.518 265.079 27.3715 262.092 27.739 261.903C27.9747 261.782 28.2846 261.257 28.4273 260.736C28.7829 259.438 30.2683 256.924 30.6055 257.049C31.1349 257.245 30.7922 258.936 30.0567 259.753ZM88.7229 383.864C88.5383 383.959 88.4719 384.202 88.5753 384.403C88.6787 384.605 88.9144 384.692 89.099 384.598C89.2836 384.503 89.35 384.26 89.2466 384.059C89.1432 383.857 88.9075 383.77 88.7229 383.864ZM27.1755 267.285C26.9909 267.38 26.8486 267.244 26.8593 266.984C26.87 266.724 27.0298 266.434 27.2144 266.339C27.399 266.244 27.5413 266.38 27.5306 266.64C27.5199 266.9 27.3601 267.19 27.1755 267.285ZM83.4647 391.539C82.8648 390.84 81.9166 391.257 82.3198 392.043C82.67 392.726 84.0217 393.301 84.153 392.823C84.2495 392.47 84.226 392.427 83.4647 391.539ZM72.8668 396.628C72.1234 397.009 70.2867 396.311 70.5889 395.762C70.7048 395.551 71.0125 395.581 71.2732 395.828C71.5334 396.075 72.0531 396.119 72.4284 395.927C72.8033 395.735 73.1946 395.742 73.298 395.944C73.4014 396.145 73.2075 396.453 72.8668 396.628ZM18.29 309.073C17.9282 309.503 17.8798 309.46 17.9952 308.811C18.1523 307.927 18.3126 307.761 18.5544 308.233C18.6467 308.413 18.5275 308.791 18.29 309.073ZM64.6929 403.136C64.5083 403.23 64.4419 403.473 64.5453 403.674C64.6487 403.876 64.8844 403.963 65.0689 403.869C65.2535 403.774 65.32 403.532 65.2166 403.33C65.1132 403.128 64.8775 403.041 64.6929 403.136ZM63.2696 402.014C63.085 402.109 62.8494 402.021 62.7459 401.82C62.6425 401.618 62.709 401.376 62.8936 401.281C63.0782 401.186 63.3138 401.274 63.4172 401.475C63.5206 401.677 63.4542 401.919 63.2696 402.014ZM62.1761 404.89C61.9808 404.99 61.9986 405.189 62.2161 405.332C62.4336 405.475 62.678 405.558 62.7595 405.516C62.8411 405.475 62.823 405.275 62.7196 405.074C62.6161 404.872 62.3715 404.789 62.1761 404.89ZM52.4223 408.967C52.2377 409.062 52.1662 409.294 52.2636 409.484C52.361 409.674 52.6438 409.854 52.8923 409.883C53.1408 409.913 53.2122 409.681 53.051 409.366C52.8899 409.052 52.6069 408.872 52.4223 408.967Z" fill="#F2E8DC"/>
</svg>
