<svg width="24" height="24" viewBox="0 0 24 24" fill="none" xmlns="http://www.w3.org/2000/svg">
<rect width="24" height="24" rx="12" fill="#D1C5B5"/>
<path d="M9.40152 9.82964C9.3326 9.34717 9.65563 8.89643 10.1378 8.82543C10.7027 8.74224 11.4403 8.65332 12.0124 8.65332C12.5844 8.65332 13.3221 8.74224 13.887 8.82543C14.3691 8.89643 14.6922 9.34717 14.6232 9.82964L13.9469 14.5642C13.8827 15.0132 13.4982 15.3467 13.0447 15.3467H10.9801C10.5266 15.3467 10.142 15.0132 10.0779 14.5642L9.40152 9.82964Z" fill="#1E1E1E"/>
<path d="M6.35191 12.2006C6.15138 11.7709 6.31388 11.2592 6.7256 11.0239L7.59512 10.5271C8.14599 10.2123 8.84192 10.5427 8.94623 11.1685L9.46562 14.2849C9.5582 14.8404 9.12983 15.346 8.56667 15.346H8.40018C8.0461 15.346 7.72407 15.141 7.57433 14.8201L6.35191 12.2006Z" fill="#1E1E1E"/>
<path d="M17.653 12.2006C17.8535 11.7709 17.691 11.2592 17.2793 11.0239L16.4098 10.5271C15.8589 10.2123 15.163 10.5427 15.0587 11.1685L14.5393 14.2849C14.4467 14.8404 14.8751 15.346 15.4382 15.346H15.6047C15.9588 15.346 16.2808 15.141 16.4306 14.8201L17.653 12.2006Z" fill="#1E1E1E"/>
<path d="M19.6133 14.2053C19.6133 13.938 19.4466 13.699 19.1958 13.6066L18.4422 13.329C18.1307 13.2143 17.7833 13.3575 17.6433 13.6585L17.2799 14.4394C17.0831 14.8623 17.3918 15.3465 17.8583 15.3465H18.9753C19.3276 15.3465 19.6132 15.0609 19.6132 14.7086L19.6133 14.2053Z" fill="#1E1E1E"/>
<path d="M4.38675 14.2053C4.38673 13.938 4.55335 13.699 4.80417 13.6066L5.55781 13.329C5.86928 13.2143 6.21669 13.3575 6.35673 13.6585L6.72012 14.4394C6.9169 14.8623 6.60815 15.3465 6.14172 15.3465H5.02473C4.67242 15.3465 4.3868 15.0609 4.38678 14.7086L4.38675 14.2053Z" fill="#1E1E1E"/>
</svg>
