<svg width="24" height="24" viewBox="0 0 24 24" fill="none" xmlns="http://www.w3.org/2000/svg">
<rect width="24" height="24" rx="12" fill="#403F3E"/>
<path d="M17.27 9.64746V14.6353C17.27 15.0386 17.116 15.4266 16.8393 15.72C16.5627 16.0134 16.1844 16.1899 15.7818 16.2136L15.6891 16.2162H8.3114C7.90815 16.2163 7.52014 16.0622 7.22674 15.7855C6.93335 15.5089 6.75676 15.1306 6.7331 14.7281L6.73047 14.6353V9.64746L11.7078 12.9658L11.7689 13.0006C11.8409 13.0358 11.9201 13.0541 12.0002 13.0541C12.0804 13.0541 12.1595 13.0358 12.2316 13.0006L12.2927 12.9658L17.27 9.64746Z" fill="#FFFAF3"/>
<path d="M15.689 7.78418C16.2581 7.78418 16.7571 8.08456 17.0354 8.53618L12.0001 11.893L6.96484 8.53618C7.09701 8.3216 7.27855 8.14173 7.49434 8.01156C7.71012 7.8814 7.9539 7.8047 8.20535 7.78787L8.31127 7.78418H15.689Z" fill="#FFFAF3"/>
</svg>
