<svg width="24" height="24" viewBox="0 0 24 24" fill="none" xmlns="http://www.w3.org/2000/svg">
<rect width="24" height="24" rx="12" fill="#D1C5B5"/>
<path fill-rule="evenodd" clip-rule="evenodd" d="M9.69791 6.99512C9.16514 6.99512 8.76738 7.16424 8.46958 7.46637C8.19253 7.74748 8.03049 8.11793 7.8992 8.44924L6.1764 13.0436C6.15596 13.0959 6.13665 13.1487 6.11849 13.2018C6.11225 13.219 6.10723 13.2362 6.10343 13.2536C6.03073 13.4965 5.99391 13.7487 5.99414 14.0022C5.99414 15.4396 7.15938 16.6049 8.59679 16.6049C10.0342 16.6049 11.1994 15.4396 11.1994 14.0022V12.4892L11.2004 12.4889L12.8011 12.4892V14.0022C12.8011 15.4396 13.9663 16.6049 15.4037 16.6049C16.8411 16.6049 18.0063 15.4396 18.0063 14.0022C18.0063 13.742 17.9682 13.4907 17.8971 13.2536C17.8889 13.2264 17.8241 13.0436 17.8241 13.0436L16.1172 8.49109L16.1013 8.44924C15.97 8.11793 15.808 7.74748 15.5309 7.46637C15.2331 7.16424 14.8354 6.99512 14.3026 6.99512C13.8412 6.99512 13.4534 7.17628 13.1862 7.48579C12.9248 7.7886 12.8011 8.18728 12.8011 8.59674V9.46785H11.1994V8.59674C11.1994 8.18728 11.0757 7.7886 10.8143 7.48579C10.5471 7.17628 10.1593 6.99512 9.69791 6.99512ZM6.99516 14.0022C6.99516 13.1177 7.71224 12.4006 8.59679 12.4006C9.48134 12.4006 10.1984 13.1177 10.1984 14.0022C10.1984 14.8868 9.48134 15.6039 8.59679 15.6039C7.71224 15.6039 6.99516 14.8868 6.99516 14.0022ZM13.8021 14.0022C13.8021 13.1177 14.5192 12.4006 15.4037 12.4006C16.2883 12.4006 17.0053 13.1177 17.0053 14.0022C17.0053 14.8868 16.2883 15.6039 15.4037 15.6039C14.5192 15.6039 13.8021 14.8868 13.8021 14.0022Z" fill="#1E1E1E"/>
</svg>
